<?xml version="1.0" encoding="iso-8859-1"?>
<!-- Generator: Adobe Illustrator 19.0.0, SVG Export Plug-In . SVG Version: 6.00 Build 0)  -->
<svg version="1.1" id="Capa_1" xmlns="http://www.w3.org/2000/svg" xmlns:xlink="http://www.w3.org/1999/xlink" x="0px" y="0px"
	 viewBox="0 0 512 512" style="enable-background:new 0 0 512 512;" xml:space="preserve">
<circle style="fill:#D2F0FF;" cx="256" cy="256" r="256"/>
<path style="fill:#73C8F0;" d="M255.929,77.918c-86.403,0-156.75,68.565-159.704,154.249l40.094,40.094
	c-0.438,3.798-0.708,7.692-0.762,11.697h0.009c-1.953,39.777,11.427,77.296,37.689,104.398l-0.026,0.026l120.803,120.803
	c119.642-17.82,212.243-118.418,217.698-241.675L361.326,117.104l-0.261,0.261C332.961,92.804,296.185,77.918,255.929,77.918z"/>
<path style="fill:#2896FF;" d="M415.775,237.764c0-88.28-71.565-159.846-159.846-159.846c-86.403,0-156.75,68.565-159.704,154.249
	c20.178-26.094,37.745-43.362,63.931-61.038c26.69-18.017,61.245-27.692,95.844-26.744c32.669,0.895,59.104,26.805,59.104,59.487
	v17.101h-118.35c-1.316-17.847,10.254-40.193,20.613-53.965c0,0-33.965,17.039-53.872,42.102
	c-10.297,12.06-18.121,25.596-22.9,42.642c-3.021,9.862-4.882,20.601-5.039,32.206h0.009
	c-2.55,51.943,21.018,100.057,65.322,126.117c81.402,47.881,184.477-5.215,184.477-5.215v-72.541
	c-51.205,24.654-127.475,35.583-165.298,4.741c-17.72-14.45-22.469-32.912-24.024-53.102h219.732v-46.194H415.775z"/>
<g>
</g>
<g>
</g>
<g>
</g>
<g>
</g>
<g>
</g>
<g>
</g>
<g>
</g>
<g>
</g>
<g>
</g>
<g>
</g>
<g>
</g>
<g>
</g>
<g>
</g>
<g>
</g>
<g>
</g>
</svg>
