<?xml version="1.0" encoding="UTF-8" standalone="no"?>
<!-- Created with Inkscape (http://www.inkscape.org/) -->

<svg
   xmlns:osb="http://www.openswatchbook.org/uri/2009/osb"
   xmlns:dc="http://purl.org/dc/elements/1.1/"
   xmlns:cc="http://creativecommons.org/ns#"
   xmlns:rdf="http://www.w3.org/1999/02/22-rdf-syntax-ns#"
   xmlns:svg="http://www.w3.org/2000/svg"
   xmlns="http://www.w3.org/2000/svg"
   xmlns:sodipodi="http://sodipodi.sourceforge.net/DTD/sodipodi-0.dtd"
   xmlns:inkscape="http://www.inkscape.org/namespaces/inkscape"
   width="154.59918mm"
   height="154.59918mm"
   viewBox="0 0 154.59919 154.59917"
   version="1.1"
   id="svg8"
   inkscape:version="0.92.1 r15371"
   sodipodi:docname="Logo.svg">
  <defs
     id="defs2">
    <linearGradient
       id="linearGradient5959"
       osb:paint="solid">
      <stop
         style="stop-color:#000000;stop-opacity:1;"
         offset="0"
         id="stop5957" />
    </linearGradient>
    <inkscape:path-effect
       effect="simplify"
       id="path-effect4495"
       is_visible="true"
       steps="1"
       threshold="0.002"
       smooth_angles="0"
       helper_size="5"
       simplify_individual_paths="false"
       simplify_just_coalesce="false" />
  </defs>
  <sodipodi:namedview
     id="base"
     pagecolor="#ffffff"
     bordercolor="#666666"
     borderopacity="1.0"
     inkscape:pageopacity="0.0"
     inkscape:pageshadow="2"
     inkscape:zoom="1.4"
     inkscape:cx="405.56275"
     inkscape:cy="334.73834"
     inkscape:document-units="mm"
     inkscape:current-layer="layer3"
     showgrid="true"
     inkscape:window-width="1920"
     inkscape:window-height="1017"
     inkscape:window-x="-8"
     inkscape:window-y="-8"
     inkscape:window-maximized="1"
     showguides="false"
     showborder="true"
     units="mm"
     fit-margin-top="0"
     fit-margin-left="0"
     fit-margin-right="0"
     fit-margin-bottom="0"
     borderlayer="false"
     inkscape:showpageshadow="true"
     inkscape:pagecheckerboard="true">
    <inkscape:grid
       type="xygrid"
       id="grid4547"
       originx="-114.29649"
       originy="-28.571491" />
  </sodipodi:namedview>
  <metadata
     id="metadata5">
    <rdf:RDF>
      <cc:Work
         rdf:about="">
        <dc:format>image/svg+xml</dc:format>
        <dc:type
           rdf:resource="http://purl.org/dc/dcmitype/StillImage" />
        <dc:title></dc:title>
      </cc:Work>
    </rdf:RDF>
  </metadata>
  <g
     inkscape:groupmode="layer"
     id="layer3"
     inkscape:label="Livello 2"
     transform="translate(-70.683914,-28.111778)"
     style="display:inline">
    <circle
       style="fill:#ffffff;fill-opacity:1;stroke:none;stroke-width:0.25766528;stroke-opacity:1"
       id="path5236"
       cx="147.98351"
       cy="105.41137"
       r="77.299591" />
  </g>
  <g
     inkscape:label="Livello 1"
     inkscape:groupmode="layer"
     id="layer1"
     style="display:inline"
     transform="translate(-114.29648,-113.82934)">
    <g
       transform="matrix(0.5961111,0,0,0.5961111,137.92194,106.32423)"
       id="g4607">
      <path
         style="fill:none;stroke:none;stroke-width:0.16775396;stroke-opacity:1;stroke-miterlimit:4;stroke-dasharray:none;fill-opacity:1;fill-rule:nonzero;stroke-dashoffset:0;stroke-linejoin:round;stroke-linecap:round"
         d="m 12.03151,232.56132 c -15.1290576,-3.24283 -14.8957778,-3.75712 1.74754,-3.85268 17.294669,-0.0993 30.862513,-1.77673 44.853535,-5.54543 9.211741,-2.4813 9.90273,-2.5817 9.90273,-1.43893 0,1.54615 1.655044,1.06147 1.854477,-0.54309 0.15931,-1.28184 0.938384,-1.78583 5.743408,-3.71552 3.057493,-1.22788 6.915226,-2.91972 8.572719,-3.75965 4.108167,-2.08177 4.799874,-2.0027 4.799874,0.5486 0,1.99091 0.07728,2.06825 1.893178,1.89316 1.674667,-0.16137 1.914622,-0.40611 2.078995,-2.11973 0.14905,-1.5545 -0.05218,-1.99945 -1.019397,-2.25235 -1.849828,-0.48374 -1.442329,-1.57904 1.124107,-3.02147 6.30279,-3.54237 17.971164,-13.57131 19.857734,-17.06767 0.35383,-0.65573 -1.63175,0.0439 -6.02391,2.12257 -37.825631,17.90183 -74.013819,8.42654 -89.896927,-23.53803 -6.236821,-12.55153 -8.8515734,-26.37178 -8.2163296,-43.42729 0.4264461,-11.44951 0.5378989,-11.9128 2.7807516,-11.55933 1.409634,0.22217 1.695055,0.0652 1.695055,-0.93284 0,-0.90891 -0.373384,-1.19999 -1.539269,-1.19999 -1.528306,0 -1.536637,-0.0238 -1.170467,-3.34945 0.704883,-6.40181 4.821288,-21.319841 5.728223,-20.75934 0.373046,0.230552 0.466388,-0.05369 0.245826,-0.748632 -0.424392,-1.337125 3.06243,-10.530662 7.268171,-19.163654 3.005198,-6.168668 4.612865,-7.676868 4.612865,-4.32745 0,1.608838 0.16182,1.747541 2.038798,1.747541 1.94171,0 2.038798,-0.09709 2.038798,-2.038793 0,-1.990248 -0.05546,-2.038794 -2.330056,-2.038794 -1.512657,0 -2.330053,-0.26327 -2.330053,-0.750468 0,-1.742931 11.721347,-19.637507 12.863009,-19.637507 0.314249,0 0.722248,0.393198 0.90666,0.873771 0.492363,1.283081 1.958194,1.065056 1.958194,-0.291256 0,-0.647235 -0.388345,-1.165026 -0.87377,-1.165026 -1.556796,0 -0.93226,-1.754468 1.828371,-5.136283 l 2.702133,-3.310162 c 5.562946,-6.153165 2.129496,-2.476399 5.562946,-6.153165 4.417572,-4.734174 6.508183,-6.214989 6.508183,-4.609852 0,0.327795 -1.259068,2.497251 -2.797928,4.821014 l -2.797927,4.225021 c 0,0 -1.359602,2.37825 -2.09536,3.820435 -0.73722,1.450755 -2.833702,5.243513 -4.476978,8.527433 -2.421328,4.838771 -3.235255,5.979483 -4.293123,6.016753 -0.717937,0.02528 -0.977681,0.178199 -0.5772,0.339796 2.011808,0.811779 -0.122499,5.439349 -2.508712,5.439349 -1.73931,0 -1.879503,0.909838 -0.207569,1.347054 0.668631,0.174853 1.121396,0.664154 1.006151,1.087336 -0.115251,0.423193 -1.645298,5.156294 -3.400113,10.517979 l -3.190578,9.748557 -2.636707,0.0087 -2.636699,0.0087 0.222205,2.330047 c 0.205611,2.15592 0.3539,2.330046 1.984321,2.330046 2.007423,0 1.984216,-1.286388 0.204905,11.358968 -1.168231,8.302422 -1.190313,23.040182 -0.04463,29.777482 0.483847,2.8453 1.728969,7.79459 2.76694,10.99842 l 1.887209,5.82513 0.418617,-7.10027 c 0.230237,-3.90515 0.966827,-9.80311 1.636857,-13.10656 5.678247,-27.995453 21.457883,-46.646615 44.836864,-52.99617 6.597282,-1.79177 21.454713,-1.925717 29.110023,-0.262478 27.75806,6.030958 55.44211,27.152852 75.2535,57.415668 2.19121,3.34713 3.98399,6.42716 3.98399,6.84453 0,0.41736 0.52425,1.2831 1.165,1.92386 1.21365,1.21367 1.5939,3.4951 0.58253,3.4951 -0.32037,0 -0.58253,0.52427 -0.58253,1.16503 0,0.91163 0.38835,1.16504 1.78555,1.16504 1.69895,0 1.92655,0.30121 4.69393,6.21271 3.40212,7.26731 4.02158,9.5151 2.62231,9.5151 -0.52063,0 -0.94658,0.26213 -0.94658,0.58252 0,0.32038 0.6618,0.5825 1.47068,0.5825 1.0657,0 1.63717,0.43781 2.07515,1.58983 0.42255,1.11139 0.41822,1.65185 -0.0155,1.79607 -1.12072,0.37358 -0.69646,2.43925 0.501,2.43925 0.75367,0 1.31335,0.61902 1.71171,1.89315 2.36123,7.55298 2.9675,10.08662 2.65167,11.08169 -0.27759,0.87461 -1.19402,-0.39653 -3.95167,-5.4812 -1.97464,-3.64093 -4.83089,-8.60785 -6.34724,-11.03762 -2.93096,-4.69645 -3.283,-5.77626 -1.88325,-5.77626 1.04449,0 1.1535,-0.92339 0.1801,-1.52502 -0.38158,-0.23584 -0.79662,-0.12021 -0.92234,0.25686 -0.35138,1.05417 -1.2897,0.81906 -2.49438,-0.625 -1.46467,-1.75569 -1.44901,-3.34946 0.0328,-3.34946 0.85435,0 1.16502,-0.38835 1.16502,-1.45625 0,-1.16504 -0.29126,-1.45629 -1.45627,-1.45629 -1.06793,0 -1.45628,0.31067 -1.45628,1.16501 0,1.75056 -0.86835,1.41601 -2.86363,-1.10323 -1.94089,-2.45059 -2.31732,-4.13939 -0.92268,-4.13939 0.48056,0 0.87377,-0.40141 0.87377,-0.89204 0,-1.09586 -1.87919,-1.91685 -2.19805,-0.9603 -0.42744,1.28233 -1.9087,0.6949 -3.77506,-1.49711 -14.64341,-17.19832 -34.95432,-32.03711 -51.12151,-37.348397 -3.09511,-1.016785 -11.84721,-2.990535 -13.26087,-2.990535 -0.19331,0 1.11774,0.884632 2.9133,1.965861 7.47525,4.501351 18.42005,14.237181 24.3558,21.665421 6.26628,7.84193 11.37191,18.62252 13.04684,27.54859 1.05064,5.59904 1.19368,15.18007 0.30181,20.21665 -2.59349,14.64596 -11.11573,28.48009 -24.30421,39.45302 -4.51001,3.75238 -12.19252,9.1482 -13.02508,9.1482 -0.24401,0 -0.52289,-1.3762 -0.61972,-3.0582 l -0.17613,-3.05819 -2.76694,-0.17745 -2.76693,-0.17745 v 2.94447 2.94451 h 2.62131 c 3.15131,0 3.24307,0.87068 0.29126,2.76394 -2.89104,1.8543 -4.07759,1.72803 -4.07759,-0.4339 0,-1.4757 -0.22655,-1.74753 -1.45629,-1.74753 -1.22976,0 -1.45628,0.27183 -1.45628,1.74753 0,1.06796 0.30204,1.74754 0.77669,1.74754 0.42718,0 0.77669,0.38527 0.77669,0.85615 0,0.94361 -9.46316,5.18942 -10.34776,4.6427 -0.28922,-0.17877 -0.52583,-1.09591 -0.52583,-2.03816 0,-1.51515 -0.20189,-1.71314 -1.74754,-1.71314 -1.553379,0 -1.747542,0.19417 -1.747542,1.74753 0,1.16504 0.291255,1.74755 0.873761,1.74755 0.480561,0 0.873781,0.38178 0.873781,0.84841 0,1.34729 -18.508716,6.72166 -23.15492,6.7235 -1.775426,5.9e-4 -1.89317,-0.12609 -1.89317,-2.03804 0,-2.02429 -0.0185,-2.0388 -2.589395,-2.0388 h -2.589393 l -0.177539,2.76694 -0.17754,2.76694 -3.099017,0.37825 c -1.70446,0.20804 -5.112162,0.47015 -7.572677,0.58249 l -4.473655,0.20432 -0.182537,-1.89318 c -0.160498,-1.66466 -0.389008,-1.89316 -1.893169,-1.89316 -1.566663,0 -1.710631,0.17151 -1.710631,2.03879 v 2.0388 l -6.26202,-0.004 c -6.014358,-0.004 -17.758501,-0.82665 -21.407369,-1.49808 l -1.123419,-0.16556 c -3.344071,-0.36915 -2.869908,-0.24298 -10.234568,-1.83339 z m 29.832442,0.58805 c -0.141059,-0.96114 -0.328049,-1.74754 -0.415513,-1.74754 -0.08747,0 -0.274446,0.7864 -0.415513,1.74754 -0.158517,1.08005 1.97e-4,1.74754 0.415513,1.74754 0.415315,0 0.574025,-0.66749 0.415513,-1.74754 z m 8.030931,0.58255 c 0,-0.86638 -0.388342,-1.16504 -1.514936,-1.16504 -1.438027,0 -1.504357,-0.13319 -1.306459,-2.62129 0.114663,-1.44173 0.04276,-2.62133 -0.159796,-2.62133 -0.202549,0 -1.187429,0.16381 -2.188623,0.36407 -1.393961,0.27878 -1.820356,0.67222 -1.820356,1.67963 0,0.85094 0.436642,1.42971 1.236408,1.63884 1.002361,0.26213 1.186856,0.66093 0.974655,2.10673 -0.257592,1.7551 -0.221714,1.7834 2.258673,1.7834 2.132083,0 2.520426,-0.17944 2.520426,-1.16501 z M 37.6621,232.83986 c 0,-0.811 0.393198,-1.62545 0.873771,-1.80986 0.480575,-0.1845 0.87377,-0.86209 0.87377,-1.50593 0,-0.92975 -0.269726,-1.09838 -1.310655,-0.8194 -0.72086,0.19309 -1.90045,0.35481 -2.62131,0.35919 -1.007567,0.007 -1.310656,0.34471 -1.310656,1.46424 0,1.22973 -0.271842,1.45629 -1.74754,1.45629 -1.399388,0 -1.747541,-0.24932 -1.747541,-1.25139 0,-1.20924 -0.161709,-1.23877 -4.805735,-0.87726 -2.643155,0.20585 -7.558113,0.40235 -10.922126,0.43688 l -6.1163923,0.0628 4.9308723,1.04731 c 2.711984,0.57601 6.166136,1.21117 7.675895,1.41144 2.53991,0.33694 2.759075,0.26514 2.93306,-0.96095 0.13835,-0.97493 0.57285,-1.32509 1.64432,-1.32509 1.147774,0 1.494631,0.33209 1.637297,1.56764 0.197993,1.71475 0.942193,1.94219 6.954777,2.12548 2.908395,0.0887 3.058193,0.0219 3.058193,-1.38134 z m 27.378135,0.98009 3.203823,-0.37927 0.291257,-2.91258 0.291255,-2.91257 h 4.077597 4.077593 l 0.180928,2.18667 c 0.20484,2.47573 -0.639943,2.43991 7.974265,0.33804 2.563044,-0.62538 6.429496,-1.65697 8.592065,-2.29245 l 3.931971,-1.15536 v -2.85274 -2.85274 l 2.184426,-0.18075 c 2.065795,-0.17106 2.194235,-0.29942 2.365215,-2.36523 l 0.18075,-2.18441 h 2.87742 2.87739 v 2.91256 2.91257 h -2.33005 c -1.936,0 -2.33007,0.19551 -2.33007,1.15654 0,1.14893 0.0198,1.14867 3.02817,-0.037 4.13458,-1.62971 3.962,-1.4272 3.962,-4.64892 v -2.87822 h 2.03879 2.03881 v -3.23041 -3.23045 l 3.93195,0.17216 3.93198,0.17217 0.17921,2.47569 c 0.0986,1.36161 0.31342,2.47567 0.47755,2.47567 0.56485,0 5.75844,-3.7138 9.82856,-7.02815 31.55472,-25.69537 34.3702,-62.34779 7.05412,-91.83164 -4.15614,-4.48594 -12.42725,-11.22005 -19.08496,-15.53841 -5.86005,-3.800957 -7.71119,-4.057443 -15.29135,-2.118789 -9.661728,2.471049 -16.652021,8.146109 -21.184331,17.198449 -1.584599,3.16495 -3.835959,9.60118 -3.480815,9.95117 0.07904,0.0779 2.185047,0.95196 4.680083,1.94243 10.965704,4.35314 19.846043,10.1399 25.703963,16.74964 7.69354,8.68099 10.79287,15.25906 11.27053,23.92075 0.40209,7.29158 -0.39058,10.10176 -6.45144,22.8715 -1.25525,2.64473 -12.79714,13.659 -17.423776,16.62729 -2.787038,1.78805 -4.394532,3.18219 -4.223224,3.66269 0.152132,0.42667 0.276568,1.65358 0.276568,2.72643 0,1.57938 0.249444,1.98607 1.310673,2.13678 1.074085,0.15259 1.310649,0.55413 1.310649,2.22495 0,1.9417 -0.09709,2.0388 -2.038795,2.0388 -1.655731,0 -2.073005,-0.24032 -2.2208,-1.27896 -0.149271,-1.04898 -0.620044,-1.31082 -2.618504,-1.45629 -2.088572,-0.1519 -2.478524,-0.39087 -2.730588,-1.67267 l -0.294049,-1.49534 -5.533875,2.50393 c -4.622729,2.09165 -5.222164,2.50568 -3.640719,2.51473 1.712778,0.009 1.893179,0.17724 1.893179,1.75834 0,1.55339 0.194183,1.74756 1.74754,1.74756 1.682812,0 1.747541,0.097 1.747541,2.62131 v 2.62131 h -2.582617 c -2.384384,0 -2.596773,-0.12283 -2.766937,-1.60191 -0.146496,-1.27313 -0.524432,-1.64082 -1.841383,-1.79155 -1.5701,-0.17965 -1.646532,-0.32023 -1.456285,-2.67786 l 0.200788,-2.4882 -1.74754,0.73071 c -1.199366,0.50149 -1.80536,1.20445 -1.931859,2.24096 -0.158208,1.2963 -0.467661,1.51026 -2.184426,1.51026 -1.299675,0 -2.000106,-0.27788 -2.000106,-0.79356 0,-0.61244 -1.229657,-0.43109 -5.38825,0.79468 -2.963537,0.87354 -7.206146,1.9437 -9.428019,2.37815 -2.96351,0.57944 -3.667531,0.87777 -2.642557,1.11973 0.861212,0.20321 1.525876,0.88034 1.732605,1.76485 0.257325,1.10101 0.770753,1.47755 2.205675,1.61759 1.639341,0.16007 1.870278,0.39377 1.870278,1.89316 0,1.6826 0.05015,1.7097 3.058195,1.65302 1.682006,-0.0317 4.499916,-0.22826 6.26202,-0.43686 z m -8.321754,-0.44876 c -0.22877,-0.22878 -0.415948,-1.28972 -0.415948,-2.35768 0,-1.8818 0.07299,-1.94169 2.36522,-1.94169 h 2.365214 l -0.180797,2.18442 c -0.162151,1.95907 -0.363241,2.20229 -1.949271,2.35766 -0.972665,0.0954 -1.955656,-0.0132 -2.184427,-0.24271 z m 3.079131,-2.26059 c 0,-0.48541 -0.51779,-0.87376 -1.165027,-0.87376 -0.647236,0 -1.165025,0.38835 -1.165025,0.87376 0,0.48544 0.517789,0.87379 1.165025,0.87379 0.647237,0 1.165027,-0.38835 1.165027,-0.87379 z m 4.077594,-4.07758 c 0,-1.94171 0.09709,-2.0388 2.038798,-2.0388 1.941708,0 2.038797,0.0971 2.038797,2.0388 0,1.94169 -0.09709,2.0388 -2.038797,2.0388 -1.94171,0 -2.038798,-0.0971 -2.038798,-2.0388 z m 2.912568,0 c 0,-0.48058 -0.393197,-0.87378 -0.87377,-0.87378 -0.480572,0 -0.873769,0.3932 -0.873769,0.87378 0,0.48057 0.393197,0.87376 0.873769,0.87376 0.480573,0 0.87377,-0.39319 0.87377,-0.87376 z m 20.629161,-2.25049 c -0.183396,-0.47775 -0.247067,-1.47746 -0.141565,-2.22164 0.158958,-1.12143 0.540632,-1.353 2.23049,-1.353 1.941722,0 2.038793,0.0971 2.038793,2.03879 0,1.8753 -0.152133,2.05346 -1.897163,2.22162 -1.272254,0.12257 -2.006958,-0.1032 -2.23049,-0.68577 z m 2.671386,-1.2446 c 0,-0.48056 -0.393211,-0.87377 -0.873781,-0.87377 -0.909624,0 -1.155677,0.68895 -0.485413,1.35918 0.67024,0.67027 1.359194,0.42421 1.359194,-0.48541 z m -50.096165,9.61147 c 0,-0.32038 -0.277603,-0.58252 -0.616893,-0.58252 -0.339294,0 -0.454885,0.26214 -0.256877,0.58252 0.198014,0.32038 0.475611,0.58252 0.616893,0.58252 0.141278,0 0.256877,-0.26214 0.256877,-0.58252 z m 3.786336,0 c 0.198014,-0.32038 0.08241,-0.58252 -0.256878,-0.58252 -0.339289,0 -0.616892,0.26214 -0.616892,0.58252 0,0.32038 0.115592,0.58252 0.256877,0.58252 0.141278,0 0.418886,-0.26214 0.616893,-0.58252 z m -17.184146,-0.58252 c 0,-0.32037 -0.26213,-0.58249 -0.582513,-0.58249 -0.320383,0 -0.582513,0.26212 -0.582513,0.58249 0,0.32039 0.26213,0.58252 0.582513,0.58252 0.320383,0 0.582513,-0.26213 0.582513,-0.58252 z m 23.883053,-2.33004 c 0,-0.77668 -0.388346,-1.16502 -1.165028,-1.16502 -0.776682,0 -1.165027,0.38834 -1.165027,1.16502 0,0.77667 0.388345,1.165 1.165027,1.165 0.776682,0 1.165028,-0.38833 1.165028,-1.165 z m -17.475404,0 c 0,-0.32038 -0.262133,-0.58253 -0.582515,-0.58253 -0.320381,0 -0.582513,0.26215 -0.582513,0.58253 0,0.32038 0.262132,0.58251 0.582513,0.58251 0.320382,0 0.582515,-0.26213 0.582515,-0.58251 z m 8.737701,-0.58253 c 0,-0.32038 -0.262132,-0.58249 -0.582515,-0.58249 -0.320381,0 -0.582512,0.26211 -0.582512,0.58249 0,0.32038 0.262131,0.58253 0.582512,0.58253 0.320383,0 0.582515,-0.26215 0.582515,-0.58253 z m 40.775936,-4.33016 c 0,-1.11341 -0.343697,-1.45712 -1.601904,-1.60189 -1.267783,-0.14597 -1.64107,-0.52576 -1.789613,-1.82124 -0.149711,-1.30527 -0.444706,-1.60032 -1.456282,-1.45628 -0.785812,0.11183 -1.33733,0.66339 -1.449219,1.44923 -0.14403,1.01155 0.15101,1.30659 1.456283,1.45625 1.295501,0.14861 1.675369,0.52184 1.821227,1.78962 0.144867,1.2582 0.488496,1.60193 1.601925,1.60193 1.113428,0 1.417583,-0.30417 1.417583,-1.41762 z m 24.465568,-6.15508 c 0,-1.55336 -0.19418,-1.74754 -1.74754,-1.74754 -1.55336,0 -1.74755,0.19418 -1.74755,1.74754 0,1.55338 0.19419,1.74754 1.74755,1.74754 1.55338,0 1.74754,-0.19418 1.74754,-1.74754 z m -11.067752,-1.5048 c 0,-1.02869 -1.254023,-0.84955 -1.614055,0.23056 -0.126816,0.38045 0.184495,0.69173 0.69175,0.69173 0.507254,0 0.922305,-0.41505 0.922305,-0.92229 z m 22.135522,-0.0132 c 0,-0.12597 -0.39321,-0.22893 -0.87378,-0.22893 -0.48057,0 -0.87377,0.25391 -0.87377,0.56423 0,0.31035 0.3932,0.41335 0.87377,0.22894 0.48057,-0.1845 0.87378,-0.43832 0.87378,-0.56422 z M 82.558606,200.18102 c 8.012664,-1.3582 17.248107,-4.4662 26.034334,-8.76133 l 7.72812,-3.7779 1.69612,-3.35994 c 2.72074,-5.3898 3.68006,-10.02409 3.38927,-16.37336 -0.38258,-8.35317 -3.06319,-14.67138 -9.15709,-21.58325 l -2.74276,-3.11088 -5.48592,4.09973 c -9.974673,7.45426 -19.275969,12.0787 -27.974682,13.90854 -5.295961,1.11402 -13.919706,1.10007 -18.256716,-0.0295 -14.391875,-3.74866 -24.800313,-17.5702 -27.752108,-36.85258 l -0.733633,-4.79242 -2.68579,0.2632 c -1.477183,0.14488 -2.964148,0.0819 -3.304372,-0.1398 -0.66887,-0.43569 -1.411687,-5.7646 -0.96965,-6.9562 0.170515,-0.45966 1.433564,-0.72815 3.425388,-0.72815 h 3.155282 v -3.79322 -3.79323 l -2.320359,0.37104 c -2.554538,0.40848 -3.041981,-0.10634 -3.154725,-3.33238 -0.05004,-1.43234 -0.296844,-1.682552 -1.660705,-1.683673 -1.51002,-9.92e-4 -1.601911,-0.151689 -1.601911,-2.62263 v -2.621281 h 2.621311 c 2.524221,0 2.62131,0.0647 2.62131,1.747535 0,1.595088 0.17078,1.747524 1.957985,1.747524 h 1.957985 l 0.996779,-6.492778 c 1.053831,-6.864385 0.930011,-7.456731 -1.563296,-7.478543 -0.794324,-0.0069 -1.0194,-0.508381 -1.0194,-2.271046 0,-1.795933 -0.247889,-2.326943 -1.202849,-2.576674 -0.996145,-0.260474 -1.171331,-0.697607 -1.019399,-2.543604 0.174216,-2.116884 0.293382,-2.238172 2.367877,-2.409876 1.837015,-0.152134 2.184424,-5.73e-4 2.184424,0.951475 0,1.156228 1.744175,2.001587 2.769573,1.342354 0.312663,-0.201009 0.752541,-0.955286 0.977511,-1.676143 0.347927,-1.11488 0.194954,-1.310649 -1.024194,-1.310649 -1.637829,0 -2.299071,-1.203694 -1.785451,-3.250128 0.329569,-1.313093 1.508931,-1.749896 4.014392,-1.486802 0.320637,0.03368 1.388649,-2.294446 2.373359,-5.173599 1.310466,-3.831632 1.583592,-5.234815 1.018932,-5.234815 -0.468818,0 -0.771448,-0.685537 -0.771448,-1.74754 0,-1.359198 -0.258891,-1.74754 -1.165024,-1.74754 -0.714123,0 -1.165029,-0.388345 -1.165029,-1.003387 0,-1.201101 -0.552536,-0.495806 -3.410063,4.352839 -1.664578,2.82446 -1.714441,3.058193 -0.652414,3.058193 0.632452,0 1.118868,-0.196604 1.080928,-0.436883 -0.230139,-1.457549 0.254863,-1.893169 2.10778,-1.893169 1.94171,0 2.038798,0.09709 2.038798,2.038798 0,1.630346 -0.226698,2.038791 -1.131534,2.038791 -0.914779,0 -1.165848,0.474252 -1.310656,2.475684 -0.16664,2.303297 -0.300796,2.480793 -1.926662,2.548932 -2.738962,0.114703 -4.368851,-0.40926 -4.368851,-1.404769 0,-1.223884 -4.535835,8.156143 -7.191092,14.871079 -1.171017,2.961385 -2.129123,5.517153 -2.129123,5.67947 0,0.162261 0.62665,0.295148 1.392551,0.295148 1.158823,0 1.432658,0.343521 1.631479,2.046579 0.314755,2.696094 0.0065,3.073932 -2.690721,3.298265 -2.241304,0.186471 -2.286507,0.237567 -3.25314,3.684058 -2.087758,7.443875 -3.194701,14.215175 -2.446202,14.963685 0.552892,0.55289 0.705925,0.0493 0.705925,-2.32316 v -3.02906 h 3.786338 3.786336 v 3.78634 3.78632 h -2.873877 c -2.702109,0 -2.884891,0.0958 -3.058193,1.60193 -0.152508,1.3254 -0.503236,1.63282 -2.031947,1.78106 -1.670697,0.16203 -1.88894,0.413 -2.279044,2.62129 -0.237277,1.34319 -0.410686,6.63627 -0.385352,11.76239 0.158429,32.05435 13.610876,55.60632 37.492549,65.64034 9.132981,3.83726 22.602581,5.02932 34.342746,3.03928 z M 24.680241,91.820375 c -0.22877,-0.228765 -0.415949,-1.259145 -0.415949,-2.289744 0,-1.570855 0.253021,-1.922157 1.564993,-2.172965 2.501378,-0.478146 3.176743,0.07066 2.98023,2.421876 -0.156931,1.877563 -0.371421,2.129421 -1.944847,2.283534 -0.972665,0.09537 -1.955655,-0.0132 -2.184427,-0.242701 z m 2.49662,-2.260568 c 0,-0.480567 -0.393197,-0.873759 -0.873771,-0.873759 -0.480575,0 -0.87377,0.393192 -0.87377,0.873759 0,0.480566 0.393195,0.873776 0.87377,0.873776 0.480574,0 0.873771,-0.39321 0.873771,-0.873776 z m -5.825137,-7.281389 v -2.400367 l 2.184427,0.180755 c 2.073707,0.171726 2.184425,0.284141 2.184425,2.21959 0,1.935475 -0.110714,2.047979 -2.184425,2.219584 l -2.184427,0.180759 z m 2.912568,-0.291253 c 0,-0.480571 -0.393196,-0.873759 -0.87377,-0.873759 -0.480573,0 -0.87377,0.393188 -0.87377,0.873759 0,0.480572 0.393197,0.873782 0.87377,0.873782 0.480574,0 0.87377,-0.39321 0.87377,-0.873782 z M 206.12523,166.62706 c -0.72693,-2.45851 -1.28354,-3.35525 -2.1902,-3.52854 -1.1154,-0.21335 -1.05599,0.0328 0.72016,2.98231 1.06471,1.7681 1.9358,3.47045 1.9358,3.78296 0,0.31253 0.11446,0.45377 0.25444,0.31383 0.14001,-0.13981 -0.18406,-1.73768 -0.7202,-3.55056 z m -3.0089,-7.45696 c 0.28905,0 0.37466,-0.39319 0.19022,-0.87374 -0.18449,-0.48061 -0.96257,-0.8738 -1.72924,-0.8738 -1.15167,0 -1.39399,-0.29533 -1.39399,-1.69899 0,-0.93446 0.29167,-1.79622 0.64816,-1.91504 0.39317,-0.131 -0.55121,-2.77306 -2.40058,-6.71582 -2.85569,-6.08812 -3.16421,-6.51098 -4.87139,-6.67702 -1.51266,-0.14707 -1.85453,-0.45567 -2.01035,-1.81441 -0.10321,-0.90042 0.11576,-2.003 0.48705,-2.45016 0.78473,-0.94555 0.29546,-2.02909 -0.91621,-2.02909 -0.47958,0 -0.83939,-0.55611 -0.83939,-1.29729 0,-0.7135 -1.24514,-3.36299 -2.76695,-5.88777 -2.44078,-4.04941 -2.78905,-4.40751 -2.95451,-3.03781 -0.16468,1.3628 -0.41402,1.53079 -2.03881,1.37333 -1.6287,-0.15786 -1.8512,-0.38947 -1.8512,-1.92695 0,-1.55937 0.19108,-1.74754 1.77487,-1.74754 h 1.77491 l -4.56633,-5.90448 C 170.82722,104.28186 161.31604,94.736456 151.09583,87.033941 l -5.37751,-4.052787 -0.17261,3.404145 -0.17261,3.404127 -2.73993,0.176352 c -2.50474,0.161377 -2.75578,0.313969 -2.92428,1.778357 -0.16623,1.444806 -0.40904,1.601916 -2.47568,1.601916 -2.27846,0 -2.29137,-0.0132 -2.29137,-2.291354 0,-2.066635 0.1572,-2.309425 1.60193,-2.475672 1.46426,-0.168423 1.61705,-0.419649 1.77829,-2.923097 l 0.17636,-2.738773 3.26315,-0.173709 3.26314,-0.173709 -6.35211,-3.617931 C 125.54299,71.473653 113.67071,67.796983 101.01828,67.290851 88.570211,66.792888 79.233866,68.873401 69.867257,74.232577 51.118613,84.959735 39.91137,105.74785 37.604872,134.07572 l -0.6564,8.06171 1.634813,2.83687 c 2.29769,3.98716 8.638693,10.07126 12.771065,12.25366 6.946672,3.66868 15.816539,4.67645 24.259064,2.75624 l 4.104303,-0.93348 -0.310208,-1.83346 c -0.170627,-1.00838 -0.640211,-5.28483 -1.043549,-9.50319 -1.726614,-18.05857 2.371372,-32.80181 11.714499,-42.14494 8.578589,-8.578553 19.199781,-11.416297 33.574921,-8.970465 13.74151,2.338005 31.88598,12.144565 45.11191,24.381665 l 2.09136,1.93501 -0.0452,-2.40618 -0.0452,-2.40618 h 2.33008 c 2.08685,0 2.34868,0.16094 2.50863,1.54259 0.11158,0.96495 0.61858,1.65766 1.35354,1.84986 1.74963,0.45753 1.29998,3.52658 -0.5552,3.78941 -0.9727,0.13783 -1.4422,-0.14883 -1.66988,-1.01939 -0.21862,-0.8357 -0.78734,-1.21112 -1.83504,-1.21112 -1.40134,0 -1.20533,0.32424 2.54362,4.20727 2.23408,2.31399 4.1163,4.31245 4.18269,4.44102 0.0665,0.12858 -0.0246,-0.6628 -0.20255,-1.75859 -0.39013,-2.404 0.70621,-3.56611 3.10484,-3.29108 1.36625,0.15676 1.6669,0.49501 1.81699,2.04487 0.13539,1.39796 0.49543,1.90205 1.45629,2.0388 0.97341,0.13848 1.32047,0.64054 1.46194,2.1147 0.17943,1.86872 0.12113,1.92689 -1.74755,1.74754 -1.49138,-0.1431 -1.97557,-0.48498 -2.11919,-1.49616 -0.13474,-0.94864 -0.5772,-1.31067 -1.60189,-1.31067 -0.77869,0 -1.41578,0.12241 -1.41578,0.27182 0,0.14949 1.11406,1.52569 2.47567,3.0582 2.23188,2.51197 2.69081,2.76857 4.66012,2.60559 2.14004,-0.17723 2.18441,-0.13958 2.18441,1.84463 0,1.11398 -0.21401,2.11278 -0.47562,2.21958 -0.26159,0.10674 0.13166,1.08486 0.87378,2.1735 1.1826,1.73466 1.34938,1.8203 1.34938,0.69296 0,-1.13024 0.2651,-1.26439 2.18443,-1.10555 2.0745,0.17173 2.19365,0.29299 2.3679,2.40988 0.15035,1.82819 -0.0271,2.28412 -0.9872,2.53519 -1.93546,0.50614 -0.35576,2.3573 1.74814,2.04853 1.54116,-0.2262 1.67689,-0.0993 1.67689,1.56754 0,0.99751 -0.24399,1.81366 -0.54221,1.81366 -0.29822,0 0.55371,1.79962 1.89318,3.99917 2.03607,3.34349 2.46559,3.77326 2.61971,2.62131 0.10125,-0.75782 0.4208,-1.37787 0.70985,-1.37787 z m -26.81602,-41.94096 c 0,-1.64717 0.15609,-1.80697 1.6019,-1.64061 1.27122,0.14618 1.60193,0.48495 1.60193,1.64061 0,1.15565 -0.33071,1.49433 -1.60193,1.6406 -1.44587,0.16644 -1.6019,0.007 -1.6019,-1.6406 z m 2.33004,-0.33981 c 0,-1.02866 -1.254,-0.84952 -1.61403,0.23058 -0.12675,0.38047 0.1845,0.69173 0.69174,0.69173 0.50727,0 0.92229,-0.41502 0.92229,-0.92231 z m -13.25217,0.53654 c -0.40048,-0.16159 -0.72815,-1.04013 -0.72815,-1.95229 0,-1.27642 -0.30193,-1.70137 -1.31065,-1.84463 -1.58006,-0.22441 -1.8314,-2.64325 -0.37043,-3.56483 1.28688,-0.81174 2.84611,-0.10787 2.84611,1.2847 0,0.86759 0.46044,1.19079 1.89317,1.32893 1.58864,0.15324 1.92338,0.44588 2.08087,1.81967 0.30707,2.67791 -1.71115,4.01781 -4.41092,2.92845 z m 3.34946,-2.23552 c 0,-1.16885 -0.29031,-1.4563 -1.4707,-1.4563 -1.03277,0 -1.63559,-0.43365 -2.02437,-1.45628 -0.30455,-0.80095 -0.95337,-1.45626 -1.44188,-1.45626 -1.43746,0 -1.01622,1.72767 0.56809,2.33003 1.02262,0.38881 1.45628,0.99162 1.45628,2.02438 0,1.1804 0.28745,1.47071 1.45629,1.47071 1.16501,0 1.45629,-0.29125 1.45629,-1.45628 z m -1.05631,-6.26203 c 0.16137,-1.67462 0.38426,-1.89318 1.93007,-1.89318 1.54581,0 1.76861,0.21863 1.93008,1.89318 0.17569,1.82143 0.10255,1.89319 -1.93008,1.89319 -2.03256,0 -2.10571,-0.0718 -1.93007,-1.89319 z m 2.80384,0.14554 c 0,-0.64726 -0.38833,-1.16505 -0.87377,-1.16505 -0.48544,0 -0.87376,0.51779 -0.87376,1.16505 0,0.64723 0.38832,1.165 0.87376,1.165 0.48544,0 0.87377,-0.51777 0.87377,-1.165 z m -13.87457,-0.68829 c 0.16491,-1.71825 0.37967,-1.93304 1.93305,-1.93304 1.55336,0 1.74755,0.19418 1.74755,1.74754 0,1.55338 -0.21488,1.76815 -1.93305,1.93305 -1.86874,0.17944 -1.9269,0.12108 -1.74755,-1.74755 z m 2.8068,-0.18559 c 0,-0.48057 -0.39318,-0.87376 -0.87375,-0.87376 -0.48057,0 -0.87378,0.39319 -0.87378,0.87376 0,0.48057 0.39321,0.87379 0.87378,0.87379 0.48057,0 0.87375,-0.39322 0.87375,-0.87379 z m -8.56041,-3.17135 c -0.19948,-0.76244 -0.89542,-1.19075 -2.12988,-1.31065 -1.75859,-0.17085 -1.83374,-0.28553 -1.83374,-2.79941 v -2.621314 h 2.62133 c 2.51388,0 2.62861,0.07502 2.79941,1.833724 0.11995,1.23447 0.5482,1.93049 1.31065,2.1299 0.81383,0.21289 1.13256,0.80328 1.13256,2.09824 0,1.62607 -0.17591,1.80207 -1.80209,1.80207 -1.29496,0 -1.88541,-0.3187 -2.09824,-1.13256 z m 3.18313,-0.50219 c 0.12609,-0.37849 -0.44727,-0.9454 -1.27426,-1.25982 -1.15908,-0.44069 -1.50363,-0.97541 -1.50363,-2.33363 0,-1.5694 -0.19109,-1.761958 -1.74753,-1.761958 -1.55338,0 -1.74754,0.194185 -1.74754,1.747538 0,1.55654 0.19264,1.74754 1.76193,1.74754 1.35823,0 1.89296,0.34453 2.33365,1.50362 0.56656,1.49017 1.7357,1.68171 2.17738,0.35671 z m 4.79479,-1.86033 v -2.39705 l 2.47569,0.17922 c 2.40687,0.17415 2.47568,0.23577 2.47568,2.21792 0,1.98214 -0.0687,2.04377 -2.47568,2.21792 l -2.47569,0.1792 z m 3.78633,0 c 0,-1.06673 -0.35061,-1.50609 -1.31064,-1.64244 -1.12041,-0.15917 -1.31066,0.0793 -1.31066,1.64244 0,1.56311 0.19022,1.80154 1.31066,1.64241 0.96003,-0.13628 1.31064,-0.5757 1.31064,-1.64241 z m -10.54455,-5.478404 c -0.17283,-0.450091 -0.23003,-1.695195 -0.12754,-2.766936 0.18141,-1.893461 0.26085,-1.948607 2.808,-1.948607 h 2.62131 l 0.17745,2.76692 0.17745,2.766919 h -2.6715 c -1.75685,0 -2.77902,-0.280153 -2.98551,-0.818296 z m 5.01068,-2.094232 c 0,-1.608853 -0.16182,-1.747532 -2.03881,-1.747532 -1.87698,0 -2.03878,0.138699 -2.03878,1.747532 0,1.608823 0.16182,1.747525 2.03878,1.747525 1.87699,0 2.03881,-0.138702 2.03881,-1.747525 z M 141.3495,93.637186 c 0,-2.032547 0.0718,-2.105684 1.89316,-1.930066 1.67461,0.161385 1.89318,0.384278 1.89318,1.930066 0,1.545779 -0.21863,1.768603 -1.89318,1.930067 -1.82143,0.175697 -1.89316,0.102381 -1.89316,-1.930067 z m 2.91257,0 c 0,-0.485429 -0.5178,-0.873775 -1.16503,-0.873775 -0.64724,0 -1.16502,0.388346 -1.16502,0.873775 0,0.48542 0.51778,0.873756 1.16502,0.873756 0.64723,0 1.16503,-0.388336 1.16503,-0.873756 z m 2.91255,-2.330056 c 0,-1.941687 0.097,-2.038779 2.0388,-2.038779 1.94173,0 2.03881,0.09705 2.03881,2.038779 0,1.94172 -0.097,2.038812 -2.03881,2.038812 -1.9417,0 -2.0388,-0.09705 -2.0388,-2.038812 z m 3.38583,0.137164 c 0.23182,-1.203792 -1.44978,-2.014963 -2.3373,-1.127443 -0.88752,0.887513 -0.0764,2.569103 1.12746,2.337271 0.55796,-0.107442 1.10239,-0.651867 1.20984,-1.209828 z M 88.965536,154.84232 c 5.315055,-2.64102 10.356315,-5.86646 15.828274,-10.12693 l 3.34651,-2.6056 -3.63775,-2.81684 c -4.546914,-3.52085 -12.688263,-8.0597 -19.113091,-10.65568 l -4.912641,-1.98493 -0.456639,1.55031 c -1.361001,4.62076 -1.002973,23.51472 0.546333,28.83217 0.411661,1.41282 1.953129,1.01043 8.399004,-2.1925 z m 97.237504,-22.17679 c 0,-0.48057 -0.39321,-0.87379 -0.87377,-0.87379 -0.48058,0 -0.87376,0.39322 -0.87376,0.87379 0,0.48058 0.39318,0.87376 0.87376,0.87376 0.48056,0 0.87377,-0.39318 0.87377,-0.87376 z m -2.91257,-3.49508 c 0,-1.16504 -0.29125,-1.45629 -1.45628,-1.45629 -1.16504,0 -1.45629,0.29125 -1.45629,1.45629 0,1.16503 0.29125,1.45628 1.45629,1.45628 1.16503,0 1.45628,-0.29125 1.45628,-1.45628 z m -6.40766,-5.75721 c 0,-0.44319 -0.52425,-0.94291 -1.16501,-1.11048 -0.78725,-0.20585 -1.16503,-0.79457 -1.16503,-1.81548 0,-1.2232 -0.27725,-1.51083 -1.45628,-1.51083 -1.16504,0 -1.4563,0.29126 -1.4563,1.45629 0,1.15949 0.29265,1.45629 1.4358,1.45629 0.83961,0 1.69467,0.48374 2.05929,1.16502 0.71581,1.33751 1.74753,1.54956 1.74753,0.35919 z m 6.99018,-0.0681 c 0,-0.48543 -0.5178,-0.87378 -1.16503,-0.87378 -0.64725,0 -1.16502,0.38835 -1.16502,0.87378 0,0.48543 0.51777,0.87377 1.16502,0.87377 0.64723,0 1.16503,-0.38834 1.16503,-0.87377 z M 28.341886,116.06373 v -2.33005 h -2.330053 -2.330054 v 2.33005 2.33007 h 2.330054 2.330053 z m -8.737703,-6.40763 v -2.32972 h -2.330052 -2.330053 v 2.33005 2.33005 h 2.330053 2.330052 z m 9.320216,-8.44645 c 0,-1.941694 -0.09709,-2.038786 -2.038795,-2.038786 -1.941712,0 -2.038798,0.09705 -2.038798,2.038786 0,1.9417 0.09709,2.03879 2.038798,2.03879 1.941707,0 2.038795,-0.0971 2.038795,-2.03879 z m 0.984058,-0.72815 c -0.146517,-0.560664 -0.266401,-0.10193 -0.266401,1.0194 0,1.12133 0.119883,1.58006 0.266401,1.0194 0.146519,-0.56067 0.146519,-1.47813 0,-2.0388 z m -6.226678,-3.349426 c 0,-0.485429 -0.51779,-0.873775 -1.165027,-0.873775 -0.647236,0 -1.165028,0.388346 -1.165028,0.873775 0,0.48542 0.517792,0.873759 1.165028,0.873759 0.647237,0 1.165027,-0.388339 1.165027,-0.873759 z m 115.227801,-6.23149 c 0.16468,-1.427678 0.43122,-1.587557 2.91257,-1.747532 l 2.73117,-0.176124 v -2.621291 -2.621305 h -2.6213 -2.62131 l -0.17746,2.766924 c -0.16092,2.508281 -0.31239,2.766916 -1.62017,2.766916 -1.54902,0 -2.3307,1.180862 -1.76227,2.662147 0.59716,1.556237 2.94888,0.789567 3.15887,-1.029775 z M 20.186699,89.851071 c 0,-0.776683 -0.388345,-1.165023 -1.165027,-1.165023 -0.776683,0 -1.165029,0.38834 -1.165029,1.165023 0,0.776667 0.388346,1.165013 1.165029,1.165013 0.776682,0 1.165027,-0.388346 1.165027,-1.165013 z m 8.7377,-13.106527 c 0,-0.48057 -0.393195,-0.87376 -0.87377,-0.87376 -0.480574,0 -0.873768,0.39319 -0.873768,0.87376 0,0.48057 0.393194,0.873781 0.873768,0.873781 0.480575,0 0.87377,-0.393211 0.87377,-0.873781 z m 5.242621,-5.825128 c 0,-0.48057 -0.393195,-0.87378 -0.873771,-0.87378 -0.480571,0 -0.873769,0.39321 -0.873769,0.87378 0,0.480571 0.393198,0.873761 0.873769,0.873761 0.480576,0 0.873771,-0.39319 0.873771,-0.873761 z m 1.165027,-10.193991 c 0,-0.320382 -0.393197,-0.582512 -0.873769,-0.582512 -0.480573,0 -0.873771,0.26213 -0.873771,0.582512 0,0.320384 0.393198,0.582513 0.873771,0.582513 0.480572,0 0.873769,-0.262129 0.873769,-0.582513 z M 41.250343,50.677069 C 41.061355,48.037361 41.121632,47.91013 42.561,47.91013 c 0.829813,0 1.508749,-0.109614 1.508749,-0.243614 0,-0.133991 0.159112,-0.658251 0.353579,-1.165026 0.286726,-0.74719 -0.09467,-0.921415 -2.017092,-0.921415 -2.236985,0 -2.500358,0.190968 -4.67044,3.386564 l -2.299775,3.386566 1.695557,-0.248858 c 1.299348,-0.190704 1.695551,-0.01982 1.695551,0.731546 0,0.683521 0.396885,0.924033 1.310655,0.794256 1.182665,-0.167961 1.291309,-0.456342 1.112559,-2.95308 z m 5.731975,-10.922128 c 0,-0.320382 -0.393198,-0.582514 -0.873771,-0.582514 -0.480575,0 -0.87377,0.262132 -0.87377,0.582514 0,0.320382 0.393195,0.582512 0.87377,0.582512 0.480573,0 0.873771,-0.26213 0.873771,-0.582512 z M 54.080635,28.7054 c 0.852595,-1.22301 -3.790824,3.84004 -5.993425,6.535062 -1.332325,1.630182 -1.551186,2.184427 -0.862586,2.184427 0.507498,0 0.924673,0.327663 0.927054,0.72814 0.0025,0.400478 1.197459,-1.360711 2.655724,-3.913751 1.458271,-2.55304 2.931227,-5.043284 3.273233,-5.533878 z"
         id="path4589"
         inkscape:connector-curvature="0"
         sodipodi:nodetypes="cscscccscccsccsscsscscsssssssssscccssccsccsccsccccscsscsssccssssscsssccsccccscccsssscsscscscccccsccccccscssssscssssscsscccccccssccccccccsccccscscssccccsccsssccccccscccccccccccccccccccccccsscsccccccccsscsccccccsccscssccccccssscsccccccsscccccsccccsscccccssssssssssscssscssscccsscssccsscssscssssssssssssssssssssssccsccsssssssssssscscsscccccccsccsccccsccccccscssscscscccsccsccssssssscsssccscssscscscccccscccsccccsccccscssscscscccscssscccscccssscccccsscccssccccccccsscccccsssscccccccccscccsccccscccccccccssccsccsccccssscccssscsscsscsccscccsccscssscscscscssscssccscsssccscsccsscccsssscccscscccscscscsscccsccsssssssscssssssscssscsccsscsccccssssssssssssssssscsscsssccccccccccscccccccssssssscsscssscsccccccscccssssssssssssssssssssssscsccsscsscssscsscccs" />
      <path
         style="fill:#46c1ef;fill-opacity:1;stroke:#000000;stroke-width:0.16775397;stroke-opacity:1;stroke-miterlimit:4;stroke-dasharray:none"
         d="M 65.652778,200.8646 C 52.588961,199.85119 42.553784,195.76647 32.926354,187.54362 23.063892,179.12003 16.099019,166.60584 12.885398,151.5349 c -1.446048,-6.78155 -1.831295,-10.7455 -1.940119,-19.96262 -0.100453,-8.50809 0.07164,-11.95047 0.664419,-13.29055 0.386425,-0.87357 0.397147,-0.87909 2.253892,-1.16013 1.072876,-0.16239 1.484372,-0.60717 1.638807,-1.77136 0.185915,-1.40149 0.411014,-1.50087 3.399887,-1.50087 h 2.490115 v -3.84464 -3.84466 h -3.830477 -3.830476 l -0.06106,2.61053 c -0.05985,2.55876 -0.188024,3.18747 -0.537246,2.63527 -0.623475,-0.98585 0.518119,-7.83591 2.451897,-14.712425 0.956021,-3.399592 1.062435,-3.521503 3.275519,-3.752564 1.499713,-0.156571 2.307502,-0.427376 2.533284,-0.849255 0.241293,-0.450855 0.237822,-2.522957 -0.0057,-3.399664 -0.252063,-0.907476 -0.608309,-1.167848 -1.755966,-1.283408 -0.854704,-0.08604 -0.954401,-0.141967 -0.915423,-0.513295 0.02406,-0.229185 0.572625,-1.790137 1.219037,-3.468777 l 1.175292,-3.052082 0.0529,2.21015 0.0529,2.210146 1.447452,-0.119183 c 2.184707,-0.179894 2.832397,-0.385151 2.945917,-0.933579 0.05261,-0.254175 0.137379,-0.664819 0.188371,-0.912543 0.05099,-0.247724 0.03868,-0.844608 -0.02736,-1.326411 -0.156141,-1.139173 -0.542126,-1.381402 -2.422939,-1.520549 -0.817888,-0.06051 -1.5903,-0.141589 -1.71647,-0.180178 -0.23867,-0.073 0.04665,-0.827116 1.770935,-4.68062 1.264368,-2.825669 3.781739,-7.840099 4.092243,-8.151465 0.240402,-0.241068 0.273857,-0.234221 0.273857,0.05606 0,0.636165 1.387667,1.05383 3.51645,1.05839 1.675542,0.0036 1.970478,-0.04403 2.297414,-0.370967 0.206297,-0.2063 0.375728,-0.438387 0.37651,-0.515747 0.0075,-0.74306 0.39795,-3.30517 0.545746,-3.58133 0.115519,-0.215849 0.486899,-0.401438 0.952211,-0.475843 0.929071,-0.148565 1.126237,-0.548525 1.126237,-2.284645 0,-1.651471 -0.308897,-1.957003 -1.978525,-1.957003 -1.723533,0 -2.296516,0.328391 -2.371052,1.358914 -0.05744,0.794098 -0.06145,0.798111 -0.854769,0.85551 -0.438384,0.03171 -0.797064,0.0072 -0.797064,-0.05435 0,-0.409047 3.504514,-6.361363 4.231301,-7.186741 l 0.445446,-0.505875 0.006,0.486679 c 0.0074,0.607904 0.539422,1.107445 1.179445,1.107445 0.681375,0 1.076825,0.469277 1.078054,1.279318 0.0016,1.102816 0.339513,2.060237 0.775854,2.198728 0.340489,0.108065 0.374531,0.221439 0.267492,0.890826 -0.193794,1.211927 -1.771589,5.878587 -2.596884,7.680827 l -0.751461,1.64101 h -1.198404 c -2.288569,0 -3.147185,0.745667 -3.152433,2.737727 -0.0041,1.543891 0.435697,2.060804 1.909928,2.244997 0.579101,0.07235 1.06543,0.23663 1.119776,0.378245 0.149342,0.389182 -0.791282,2.269784 -1.261026,2.521185 -0.904376,0.484006 -2.428162,-0.419799 -2.428162,-1.440219 0,-0.841355 -0.497562,-1.06377 -2.102816,-0.939984 -2.323486,0.179176 -2.56882,0.452216 -2.638878,2.936896 -0.04539,1.609812 0.121244,1.966398 1.01013,2.16163 0.797358,0.175129 1.050695,0.717274 1.196264,2.560021 0.07067,0.894594 0.23388,1.77067 0.362692,1.946831 0.147751,0.202061 0.588939,0.354368 1.19522,0.41263 1.394092,0.133948 1.634238,0.474751 1.596524,2.265642 -0.02471,1.173409 -1.08059,8.979238 -1.481921,10.955439 -0.104197,0.513086 -0.11281,0.515746 -1.670564,0.515746 -1.944616,0 -2.154092,-0.160584 -2.15812,-1.654402 -0.0016,-0.585737 -0.0757,-1.179919 -0.16471,-1.320414 -0.228055,-0.359948 -1.512993,-0.570812 -3.536412,-0.580338 l -1.734782,-0.0079 0.0028,2.203627 c 0.0036,2.861699 0.119517,3.102832 1.566835,3.259037 0.599758,0.0647 1.205301,0.23352 1.34565,0.37509 0.140349,0.14157 0.309678,0.84816 0.376287,1.5702 0.204853,2.22061 0.389896,2.7095 1.144916,3.02498 0.546514,0.22835 0.916509,0.24133 2.098822,0.0736 0.789438,-0.11198 1.625235,-0.24472 1.857318,-0.29498 l 0.421973,-0.0914 v 3.73797 3.73797 l -2.981408,0.0634 c -3.680024,0.0782 -3.770173,0.12673 -3.770173,2.0286 0,1.4916 0.502701,4.5878 0.856748,5.27683 0.330133,0.64251 1.401993,0.79152 3.925624,0.54577 1.031489,-0.10044 1.969989,-0.18481 2.085551,-0.18746 0.126722,-0.003 0.37417,1.05581 0.623491,2.66765 1.302907,8.42331 2.791822,13.49217 5.660376,19.27015 2.337775,4.70886 4.990668,8.41461 8.261482,11.54021 5.313829,5.07792 11.42345,8.04555 17.976362,8.73169 2.811255,0.29435 10.572819,0.12199 12.932523,-0.28719 9.585238,-1.66211 19.234628,-6.4272 31.255476,-15.43465 l 3.77768,-2.83069 2.01319,2.3215 c 2.59071,2.98745 4.00426,4.83785 5.13814,6.72604 3.50328,5.83383 4.91062,11.54119 4.65181,18.86504 -0.17662,4.99805 -1.07494,8.33864 -3.6048,13.40529 l -1.50035,3.00481 -5.53254,2.65857 c -6.92706,3.32868 -10.42831,4.7901 -15.659923,6.53645 -8.659038,2.89043 -14.679385,3.97307 -22.880367,4.11454 -2.372431,0.0409 -5.284052,-9.9e-4 -6.470268,-0.0929 z M 28.04081,91.87694 c 0.562306,-0.256205 0.850771,-1.114758 0.852302,-2.536673 0.0019,-1.802538 -0.386827,-2.209177 -2.052828,-2.147224 -1.46339,0.05438 -2.189816,0.34154 -2.44935,0.96811 -0.287995,0.695283 -0.159966,3.230516 0.184074,3.645054 0.293488,0.353634 2.735519,0.40347 3.465802,0.07076 z"
         id="path4591"
         inkscape:connector-curvature="0" />
      <path
         style="fill:#46c1ef;fill-opacity:1;stroke:#000000;stroke-width:0.16775397;stroke-opacity:1;stroke-miterlimit:4;stroke-dasharray:none"
         d="m 39.231035,53.549359 c -0.219703,-0.09512 -0.332429,-0.326099 -0.373953,-0.766267 -0.03165,-0.335491 -0.06941,-0.426419 -0.240895,-0.580186 -0.180317,-0.161674 -0.255255,-0.182343 -0.661153,-0.182343 -0.251783,0 -0.880747,0.06181 -1.3977,0.137364 -0.516949,0.07555 -0.953943,0.123331 -0.971097,0.106177 -0.03334,-0.03334 2.776397,-4.185967 3.282862,-4.851864 0.817704,-1.075106 1.270216,-1.463275 1.926646,-1.652694 0.758401,-0.218848 2.945975,-0.192878 3.435904,0.04079 0.259072,0.123561 0.263922,0.370795 0.02147,1.094466 -0.111171,0.331818 -0.202128,0.647929 -0.202128,0.702468 0,0.154289 -0.154065,0.186107 -1.326135,0.273881 -0.601736,0.04506 -1.157107,0.11575 -1.23416,0.157086 -0.340089,0.182448 -0.376527,0.636508 -0.26288,3.275888 0.05323,1.236308 0.04759,1.402321 -0.05694,1.676049 -0.161065,0.421745 -0.472311,0.575624 -1.229722,0.607977 -0.310634,0.01326 -0.630184,-0.0042 -0.710114,-0.03879 z"
         id="path4593"
         inkscape:connector-curvature="0" />
      <path
         style="display:inline;fill:#46c1ef;fill-opacity:1;stroke:#000000;stroke-width:0.16775396;stroke-miterlimit:4;stroke-dasharray:none;stroke-opacity:1"
         d="m 44.847224,42.46055 c -0.08487,-0.280972 -0.33521,-0.451551 -0.802284,-0.546674 -0.385621,-0.07854 -0.38804,-0.08049 -0.381764,-0.309589 0.009,-0.329053 0.397344,-0.901393 1.547718,-2.281085 1.804875,-2.164663 5.550927,-6.279157 5.433232,-5.967615 -0.01378,0.03647 -0.416822,0.722745 -0.895653,1.525057 -0.478831,0.802312 -1.326324,2.24946 -1.883323,3.215881 -1.506087,2.613149 -2.43942,4.088921 -2.800549,4.428185 l -0.154229,0.144891 z"
         id="path4595"
         inkscape:connector-curvature="0" />
      <path
         style="display:inline;fill:#1f407f;fill-opacity:1;stroke:#000000;stroke-width:0.16775397;stroke-opacity:1;stroke-miterlimit:4;stroke-dasharray:none"
         d="m 63.683928,160.67244 c -0.364687,-0.064 -1.558211,-0.24711 -2.652274,-0.40696 -2.442001,-0.3568 -6.486189,-1.62041 -8.619883,-2.69329 -5.036267,-2.53236 -10.913051,-8.08658 -14.067111,-13.29501 l -1.266214,-2.09093 0.31951,-4.1419 c 1.067684,-13.84056 2.959337,-23.14628 6.583903,-32.3886 8.334996,-21.25338 25.120332,-35.227177 45.409539,-37.803355 4.320191,-0.548546 15.076852,-0.421676 19.010132,0.224215 11.18378,1.836513 19.02786,4.766674 31.60863,11.807423 l 4.58226,2.564431 -2.94405,0.174173 c -1.61922,0.09579 -3.0222,0.252332 -3.11772,0.347857 -0.0956,0.09553 -0.25208,1.18191 -0.3479,2.414186 -0.19195,2.468447 -0.4785,3.03138 -1.54311,3.03138 -1.2507,0 -1.69137,0.560898 -1.81819,2.314278 -0.17413,2.407358 0.0964,2.725009 2.32082,2.725009 2.04524,0 2.65915,-0.35555 2.66594,-1.544002 0.002,-0.390729 0.10706,-0.872982 0.23294,-1.071662 0.27516,-0.434293 2.04155,-0.804887 3.91195,-0.820725 1.6482,-0.01399 1.67704,-0.06698 1.71249,-3.149639 0.0453,-3.934244 -0.17818,-3.89524 4.03489,-0.704363 2.01491,1.52604 4.57894,3.522131 5.69782,4.43575 l 2.03434,1.66112 -2.4243,0.07591 c -1.74259,0.05458 -2.51582,0.186194 -2.74972,0.468024 -0.50191,0.604747 -0.64453,3.8604 -0.19518,4.455386 0.43096,0.570643 2.08041,0.940303 4.26884,0.956687 l 1.5428,0.01151 -0.18655,-2.784868 c -0.10602,-1.582793 -0.085,-2.783323 0.0485,-2.781279 0.40973,0.006 7.90236,7.152374 11.25871,10.738074 1.77508,1.89638 4.37996,4.8205 5.7886,6.49806 2.63064,3.13284 9.04745,11.30466 9.04745,11.52196 0,0.0669 -0.68627,0.15738 -1.52505,0.20113 l -1.52506,0.0796 -0.0783,1.48264 c -0.0953,1.80358 0.15957,2.07256 2.04078,2.15442 1.48241,0.0645 1.8717,-0.20818 1.87924,-1.31632 0.002,-0.32823 0.12644,-0.59677 0.27602,-0.59677 0.65296,0 5.29781,8.46008 5.29781,9.64938 0,0.69918 0.46419,1.22494 1.08148,1.22494 0.24471,0 0.59826,0.18475 0.78568,0.41058 0.28001,0.33739 0.26216,0.5754 -0.10014,1.33514 -0.54939,1.15207 -0.58144,3.38038 -0.0562,3.90563 0.21159,0.21159 0.92714,0.46605 1.59012,0.56547 0.93672,0.14047 1.35313,0.37441 1.86804,1.0495 0.75325,0.98755 4.01904,7.72329 4.8842,10.0737 0.55028,1.49498 0.55584,1.60613 0.13537,2.70713 -0.28594,0.74873 -0.37782,1.47155 -0.26408,2.07776 0.15421,0.82204 0.28832,0.94853 1.15888,1.09302 0.54146,0.0899 1.13637,0.21107 1.32203,0.26933 0.55179,0.17317 0.68413,0.90062 0.25245,1.38768 -0.22144,0.24984 -0.44478,0.68448 -0.49632,0.96586 -0.16132,0.88094 -0.58667,0.59519 -1.75664,-1.18016 -1.81013,-2.74673 -2.76141,-4.78889 -2.42153,-5.1984 0.29359,-0.35378 0.39178,-2.95347 0.12174,-3.22352 -0.0808,-0.0808 -0.65444,-0.12615 -1.2748,-0.10083 -1.17221,0.0478 -2.58666,-0.38242 -2.58666,-0.78689 0,-0.12817 -0.0156,-0.32078 -0.0345,-0.42799 -0.019,-0.10722 0.30922,-0.38501 0.72937,-0.6173 0.7155,-0.39558 0.76882,-0.54105 0.84124,-2.29476 0.0928,-2.24779 -0.15777,-2.59809 -2.04421,-2.85754 -1.75188,-0.24095 -2.35727,-0.0129 -2.61595,0.98535 l -0.21303,0.8221 -0.884,-1.37758 c -0.87028,-1.35624 -0.87931,-1.40136 -0.58243,-2.91042 0.56206,-2.8569 -0.0454,-3.78393 -2.21274,-3.37731 -1.47438,0.27659 -2.5451,-0.37722 -4.75239,-2.90197 -1.11272,-1.27276 -2.02313,-2.41909 -2.02313,-2.54737 0,-0.12829 0.40921,-0.23326 0.90935,-0.23326 0.99092,0 1.74292,0.56262 1.74292,1.30398 0,0.75387 0.83005,1.2994 2.26719,1.49004 1.71898,0.22804 2.04356,-0.10849 1.8023,-1.86867 -0.18835,-1.37417 -0.8403,-2.25148 -1.67311,-2.25148 -0.61717,0 -0.95416,-0.55402 -1.21292,-1.99409 -0.2908,-1.61844 -0.75258,-1.98433 -2.50447,-1.98433 -2.08881,0 -2.6574,0.61018 -2.6574,2.8517 v 1.62398 l -2.62296,-2.70198 c -3.78221,-3.89616 -4.72127,-5.06673 -4.15453,-5.17883 0.89392,-0.1768 1.67339,0.22139 2.0062,1.02486 0.4058,0.97967 1.09056,1.38791 1.96144,1.16933 1.96488,-0.49316 2.24323,-3.33955 0.4012,-4.10254 -0.57261,-0.23719 -0.85171,-0.6024 -1.08153,-1.4152 -0.45937,-1.62467 -0.66659,-1.74999 -3.01681,-1.82434 l -2.11289,-0.0669 0.0401,2.31789 0.0401,2.31789 -2.55972,-2.28949 c -1.40785,-1.25922 -2.65961,-2.3783 -2.78171,-2.48683 -0.12209,-0.10855 0.32351,-0.13587 0.9902,-0.0607 2.287,0.25778 3.49897,-0.80005 3.45024,-3.01141 -0.0312,-1.41425 -0.4151,-1.9006 -1.65914,-2.10176 -1.56024,-0.25229 -2.0815,-0.56343 -2.28068,-1.36136 -0.25386,-1.01707 -0.89775,-1.67888 -1.6334,-1.67888 -2.5889,0 -3.31011,2.9135 -1.01591,4.10402 0.93724,0.48635 1.05649,0.66678 1.22657,1.85583 0.10362,0.7244 0.14822,1.35728 0.0991,1.40639 -0.0491,0.0491 -1.32598,-0.87463 -2.83749,-2.05275 -11.7478,-9.15677 -26.90629,-16.524255 -37.89075,-18.416085 -9.9341,-1.710937 -18.11978,-0.881093 -25.033345,2.537843 -7.691744,3.803772 -14.243792,11.290682 -17.485458,19.980322 -3.49601,9.37143 -4.244264,19.19923 -2.581721,33.90922 0.289582,2.56221 0.599867,4.95081 0.689515,5.30801 0.193524,0.77105 0.360542,0.70519 -4.125585,1.6269 -3.174601,0.65226 -9.850862,1.09766 -11.669998,0.77856 z m 115.487522,-42.1721 c 0.22923,-0.22924 0.41679,-0.81923 0.41679,-1.31111 0,-1.10325 -0.77187,-1.72006 -2.15246,-1.72006 -1.07595,0 -1.2955,0.29215 -1.2955,1.72397 0,1.48347 0.20482,1.72398 1.46818,1.72398 0.68837,0 1.31269,-0.16648 1.56299,-0.41678 z m -7.95956,-7.70103 c 0.3045,-0.11685 0.41953,-0.52157 0.41953,-1.47619 0,-2.00908 -0.28221,-2.34123 -1.98921,-2.34123 -1.60498,0 -1.801,0.18524 -2.07429,1.96019 -0.248,1.61069 0.1148,2.01822 1.79671,2.01822 0.78525,0 1.61651,-0.0724 1.84726,-0.16099 z m -11.18416,-1.22065 c 0.51792,-0.59554 0.60766,-1.83302 0.18959,-2.6142 -0.2197,-0.41051 -0.56233,-0.51302 -1.71465,-0.51302 -1.15232,0 -1.49495,0.10251 -1.71465,0.51302 -0.39264,0.73367 -0.35087,3.13002 0.057,3.26864 0.77319,0.26279 2.73604,-0.14082 3.18273,-0.65444 z m -5.35039,-3.96114 c 0.16975,-0.31718 0.23992,-1.04909 0.15865,-1.65496 -0.1369,-1.02068 -0.47912,-1.474 -1.62499,-2.15259 -0.24633,-0.14588 -0.57264,-0.862 -0.72514,-1.59137 -0.15251,-0.729368 -0.39747,-1.475321 -0.54436,-1.657664 -0.17938,-0.222665 -1.08377,-0.331527 -2.75426,-0.331527 h -2.48718 v 2.195401 c 0,2.47798 0.39376,3.37436 1.48231,3.37436 0.90267,0 2.4961,0.69761 2.4961,1.0928 0,0.79804 0.87651,1.29424 2.2862,1.29424 1.16843,0 1.46016,-0.0969 1.71267,-0.56869 z m 7.63711,-0.73929 c 1.39663,-0.26977 1.61604,-0.56834 1.62131,-2.20628 0.006,-1.71259 -0.61024,-2.32074 -2.34982,-2.32074 -0.71115,0 -1.66596,-0.0746 -2.12182,-0.16576 l -0.82883,-0.16577 v 2.55281 2.55282 l 1.25983,-0.0116 c 0.6929,-0.006 1.7816,-0.11234 2.41933,-0.23552 z m -17.47098,-9.738224 c 0.25117,-0.238481 0.38811,-0.82916 0.37145,-1.602323 -0.0328,-1.517993 -0.52885,-1.938918 -2.2853,-1.938918 -1.15343,0 -1.31027,0.07314 -1.56375,0.72937 -0.35424,0.916983 -0.14596,2.973566 0.3323,3.281333 0.49326,0.317416 2.65659,-0.006 3.1453,-0.469462 z m 6.0628,-1.921145 c 0.47808,-0.302918 0.68668,-2.360393 0.3323,-3.277763 -0.2676,-0.692753 -0.36894,-0.729371 -2.01885,-0.729371 -1.64991,0 -1.75125,0.03662 -2.01885,0.729371 -0.35439,0.91737 -0.14579,2.974845 0.3323,3.277763 0.19822,0.125602 0.95718,0.228358 1.68655,0.228358 0.72937,0 1.48832,-0.102756 1.68655,-0.228358 z"
         id="path4597"
         inkscape:connector-curvature="0" />
      <path
         style="fill:#1f407f;fill-opacity:1;stroke:#000000;stroke-width:0.16775397;stroke-miterlimit:4;stroke-dasharray:none;stroke-opacity:1"
         d="m 206.68752,170.14694 c -0.0387,-0.0393 -0.0704,-0.17082 -0.0704,-0.29226 0,-0.27933 -1.13789,-2.50112 -2.12818,-4.15535 -1.39874,-2.33653 -1.50835,-2.70616 -0.76734,-2.58767 0.82418,0.13179 1.21723,0.53246 1.74493,1.77875 0.3387,0.79995 0.93453,2.79534 1.19709,4.00903 0.15104,0.69827 0.16427,1.39024 0.0238,1.2475 z"
         id="path4599"
         inkscape:connector-curvature="0" />
      <path
         style="fill:#4089c9;fill-opacity:1;stroke:#000000;stroke-width:0.16775397;stroke-opacity:1;stroke-miterlimit:4;stroke-dasharray:none"
         d="m 56.127779,233.79984 c -0.175049,-0.17505 -0.3201,-0.74198 -0.322333,-1.25983 -0.0058,-1.32458 -0.282158,-1.62748 -1.732661,-1.89846 -1.290004,-0.24101 -2.241687,-0.85041 -2.241687,-1.43548 0,-0.49556 -1.069143,-1.73876 -1.694302,-1.97015 -0.416443,-0.15413 0.25631,-0.39302 2.622599,-0.93124 1.750498,-0.39815 5.331066,-1.29726 7.956815,-1.99801 6.473488,-1.72762 6.057957,-1.65989 6.563249,-1.06975 0.545766,0.63741 2.0996,0.94304 3.195903,0.62863 0.704042,-0.20192 0.893008,-0.43925 1.191665,-1.49667 0.36579,-1.29511 0.794838,-1.71493 2.464728,-2.41167 l 0.949866,-0.39633 -0.12185,2.10488 c -0.136177,2.35238 0.100504,2.90417 1.245695,2.90417 1.092364,0 1.814555,0.66577 2.016079,1.85859 0.106018,0.62751 0.381224,1.17348 0.669193,1.3276 0.269019,0.14397 1.529332,0.26177 2.800705,0.26177 h 2.311585 l -0.172414,-2.45336 c -0.1947,-2.77054 -0.42446,-3.11642 -2.070199,-3.11642 -1.1575,0 -1.550002,-0.49693 -1.550002,-1.96243 0,-1.04305 -0.524108,-1.48552 -1.759586,-1.48552 -1.126649,0 -0.597231,-0.32819 3.774055,-2.3396 5.39899,-2.48428 5.060835,-2.41209 5.399947,-1.15273 0.374493,1.39077 0.719376,1.62569 2.824327,1.92379 1.931513,0.27353 2.492166,0.56978 2.492166,1.31685 0,0.89776 0.743622,1.3126 2.352943,1.3126 0.835655,0 1.662598,-0.14323 1.837647,-0.31827 0.425589,-0.42559 0.414037,-3.25048 -0.01476,-3.60634 -0.183161,-0.15201 -0.669275,-0.36077 -1.080252,-0.46393 -0.420306,-0.10549 -0.846491,-0.44861 -0.974101,-0.78425 -0.371078,-0.97601 -0.415861,-4.27176 -0.06381,-4.69596 0.173206,-0.20869 1.302828,-1.08002 2.510267,-1.93627 5.280584,-3.74471 11.522834,-9.27506 15.902094,-14.08855 2.5059,-2.75438 3.41389,-4.34852 6.17249,-10.83699 2.54015,-5.97466 3.05242,-8.19726 3.05724,-13.26477 0.007,-7.59181 -1.64843,-13.179 -5.6899,-19.20108 -7.16348,-10.67408 -16.88213,-18.06418 -31.568848,-24.00509 -2.042251,-0.82611 -3.88902,-1.61112 -4.103929,-1.74449 -0.331896,-0.20596 -0.21873,-0.75391 0.75138,-3.63818 3.753218,-11.15886 9.972871,-18.23207 19.266187,-21.910204 4.16259,-1.647476 7.56084,-2.404533 10.87431,-2.422564 2.75061,-0.01499 3.02036,0.03285 4.71566,0.83586 4.25113,2.013633 13.21348,8.647028 19.78641,14.644728 6.10017,5.56631 12.27317,13.93045 15.96756,21.63534 3.81926,7.9653 5.48671,14.63383 5.73966,22.95421 0.28402,9.34248 -1.44812,17.29012 -5.63648,25.86202 -5.11303,10.46432 -13.95037,20.28524 -26.0176,28.91327 -2.66134,1.90285 -3.48398,2.38921 -3.69103,2.18217 -0.079,-0.079 -0.21505,-1.15677 -0.30244,-2.39518 l -0.15891,-2.25163 -2.1513,-0.16749 c -1.18321,-0.0921 -3.0166,-0.16822 -4.0742,-0.16909 l -1.92289,-0.002 v 3.18273 3.18272 h -1.98921 -1.98921 v 2.21486 c 0,2.62584 -0.31955,3.70413 -1.2192,4.11404 -0.36429,0.16598 -0.71641,0.30178 -0.78248,0.30178 -0.0661,0 -0.12013,-1.37255 -0.12013,-3.05011 v -3.05012 h -3.01202 -3.01203 l -0.17537,1.92289 c -0.11483,1.25919 -0.31662,2.0286 -0.58462,2.22914 -0.2251,0.16842 -1.23749,0.3894 -2.249769,0.49106 l -1.840502,0.18483 v 2.84956 2.84956 l -2.32074,0.68758 c -7.024354,2.08119 -15.912489,4.24133 -16.958095,4.12146 -0.665298,-0.0763 -0.753169,-0.20006 -0.813858,-1.14642 -0.03742,-0.58351 -0.132344,-1.44881 -0.210941,-1.92291 l -0.142902,-0.86198 h -4.081129 c -4.718888,0 -4.25899,-0.34129 -4.53291,3.36388 l -0.180061,2.43558 -0.961783,0.14799 c -4.421329,0.68032 -10.601777,0.88316 -11.119986,0.36495 z m 3.434828,-0.21883 c 1.124482,-0.31235 1.212813,-0.48197 1.448413,-2.78157 l 0.176284,-1.72065 h -2.297621 c -2.25818,0 -2.302348,0.0125 -2.57282,0.72382 -0.26983,0.70971 -0.118408,2.87577 0.239532,3.42643 0.406133,0.6248 1.544193,0.75805 3.006212,0.35197 z m 8.395246,-6.35198 c 0.09524,-2.03137 -0.208406,-2.39387 -2.005228,-2.39387 -1.870625,0 -2.1863,0.30005 -2.1863,2.0781 0,0.86312 0.143251,1.67224 0.328937,1.85793 0.212363,0.21236 0.940842,0.30166 2.055511,0.25196 l 1.726574,-0.077 z m 23.250692,-2.12134 c 0.49805,-0.41335 0.564974,-3.19083 0.08837,-3.66744 -0.17505,-0.17505 -1.003747,-0.31827 -1.841552,-0.31827 -1.819869,0 -2.349039,0.52115 -2.349039,2.31345 0,1.65802 0.720026,2.29565 2.409032,2.13336 0.707604,-0.068 1.469539,-0.27549 1.693192,-0.4611 z"
         id="path4601"
         inkscape:connector-curvature="0" />
      <path
         style="fill:#4089c9;fill-opacity:1;stroke:#000000;stroke-width:0.16775397;stroke-opacity:1;stroke-miterlimit:4;stroke-dasharray:none"
         d="m 46.14278,234.84754 c -0.109406,-0.0158 -0.329478,-0.0457 -0.48905,-0.0666 -0.179151,-0.0234 -0.350351,-0.0981 -0.44757,-0.19539 -0.191751,-0.19175 -0.201122,-0.45667 -0.05504,-1.55592 0.183068,-1.37752 0.01709,-1.72281 -0.987174,-2.0536 -0.756823,-0.24928 -1.152774,-0.72231 -1.218629,-1.45586 -0.06605,-0.73569 0.224185,-1.25708 0.849486,-1.52608 0.361658,-0.15558 1.492432,-0.40675 2.500329,-0.55538 0.603955,-0.089 0.618055,-0.0881 0.692512,0.048 0.09398,0.17177 0.105247,1.62905 0.02492,3.22217 -0.08662,1.71771 -0.02743,1.80518 1.275615,1.88487 0.414124,0.0253 0.860604,0.0816 0.992179,0.12491 0.438898,0.14473 0.687189,0.76056 0.551007,1.36666 -0.138478,0.61632 -0.470729,0.73041 -2.229831,0.76565 -0.692905,0.0139 -1.349343,0.0123 -1.45875,-0.003 z"
         id="path4603"
         inkscape:connector-curvature="0" />
      <path
         style="fill:#4089c9;fill-opacity:1;stroke:#000000;stroke-width:0.16775397;stroke-miterlimit:4;stroke-dasharray:none;stroke-opacity:1"
         d="m 33.345565,234.15507 c -3.876566,-0.16883 -5.039596,-0.42859 -5.449754,-1.2172 -0.0547,-0.10517 -0.15374,-0.49809 -0.220089,-0.87315 -0.227875,-1.2881 -0.497891,-1.54607 -1.623906,-1.55146 -0.635807,-0.003 -0.954603,0.0763 -1.226998,0.30554 -0.276141,0.23236 -0.363516,0.42345 -0.495473,1.08362 -0.06196,0.30998 -0.157104,0.63323 -0.21143,0.71834 -0.127736,0.2001 -0.473998,0.34259 -0.832278,0.34248 -1.297063,-2.6e-4 -5.821614,-0.80059 -12.247811,-2.1662 l -1.8189348,-0.38652 0.6585654,-0.0151 c 0.3622114,-0.008 2.5234454,-0.0457 4.8027414,-0.0832 5.252218,-0.0863 7.991689,-0.1958 11.736306,-0.46913 2.132986,-0.15569 3.490694,-0.16816 3.809434,-0.035 0.303056,0.12662 0.374512,0.28775 0.431223,0.97237 0.07357,0.88822 0.246577,1.0752 1.107437,1.19694 0.641045,0.0907 1.579369,0.0258 1.885255,-0.13021 0.393722,-0.20089 0.473969,-0.38695 0.535823,-1.24244 0.03295,-0.45578 0.09884,-0.86333 0.160624,-0.99353 0.180207,-0.37975 0.344363,-0.43816 1.515196,-0.53916 0.585551,-0.0505 1.348099,-0.15123 1.694552,-0.22384 1.229431,-0.25766 1.30153,-0.26726 1.484242,-0.1978 0.227685,0.0865 0.306193,0.30576 0.305393,0.85265 -0.0011,0.72744 -0.233344,1.11803 -0.927645,1.55984 -0.480268,0.30562 -0.795684,1.10359 -0.795684,2.01301 0,0.57113 -0.128213,0.85801 -0.445183,0.99609 -0.305372,0.13305 -1.893032,0.16744 -3.831606,0.0831 z"
         id="path4605"
         inkscape:connector-curvature="0" />
    </g>
  </g>
</svg>
