<?xml version="1.0" encoding="UTF-8" standalone="no"?>
<!-- Created with Inkscape (http://www.inkscape.org/) -->

<svg
   xmlns:dc="http://purl.org/dc/elements/1.1/"
   xmlns:cc="http://creativecommons.org/ns#"
   xmlns:rdf="http://www.w3.org/1999/02/22-rdf-syntax-ns#"
   xmlns:svg="http://www.w3.org/2000/svg"
   xmlns="http://www.w3.org/2000/svg"
   xmlns:sodipodi="http://sodipodi.sourceforge.net/DTD/sodipodi-0.dtd"
   xmlns:inkscape="http://www.inkscape.org/namespaces/inkscape"
   version="1.1"
   id="svg2"
   width="1700"
   height="1700"
   viewBox="0 0 1700 1700"
   sodipodi:docname="maintenance.svg"
   inkscape:version="0.92.2 (5c3e80d, 2017-08-06)">
  <metadata
     id="metadata8">
    <rdf:RDF>
      <cc:Work
         rdf:about="">
        <dc:format>image/svg+xml</dc:format>
        <dc:type
           rdf:resource="http://purl.org/dc/dcmitype/StillImage" />
        <dc:title></dc:title>
      </cc:Work>
    </rdf:RDF>
  </metadata>
  <defs
     id="defs6" />
  <sodipodi:namedview
     pagecolor="#ffffff"
     bordercolor="#666666"
     borderopacity="1"
     objecttolerance="10"
     gridtolerance="10"
     guidetolerance="10"
     inkscape:pageopacity="0"
     inkscape:pageshadow="2"
     inkscape:window-width="1500"
     inkscape:window-height="937"
     id="namedview4"
     showgrid="false"
     fit-margin-top="0"
     fit-margin-left="0"
     fit-margin-right="0"
     fit-margin-bottom="0"
     inkscape:zoom="0.25"
     inkscape:cx="1021.0832"
     inkscape:cy="472.99932"
     inkscape:window-x="-8"
     inkscape:window-y="-8"
     inkscape:window-maximized="1"
     inkscape:current-layer="svg2" />
  <g
     id="g4519"
     transform="matrix(13.56202,0,0,13.56202,-2827.8016,-690.90943)">
    <path
       style="fill:#b8bdc8;stroke-width:0.096"
       d="m 253.248,170.67684 c -2.10761,-0.18663 -4.53987,-0.70468 -6.24,-1.32908 -1.25168,-0.45969 -3.02139,-1.37791 -4.032,-2.09203 -1.17499,-0.83025 -3.43709,-3.0768 -4.68767,-4.65544 -6.62485,-8.36276 -11.4761,-21.88816 -13.44506,-37.48506 -0.31682,-2.50966 -0.1772,-2.12034 -1.66967,-4.65569 -1.95446,-3.32015 -4.27754,-7.81913 -5.68575,-11.01132 -4.71094,-10.678889 -6.23989,-19.321309 -4.55092,-25.724203 1.10061,-4.172464 3.97721,-8.588423 7.85846,-12.063801 2.07776,-1.860484 4.53365,-3.650931 7.10861,-5.18248 1.34308,-0.798844 4.55887,-2.437911 6,-3.058166 0.5808,-0.249973 1.26258,-0.580715 1.51508,-0.734984 0.75564,-0.461676 4.95991,-1.935208 7.79692,-2.732697 5.96532,-1.676867 11.9609,-2.716807 18.864,-3.271983 2.55363,-0.205373 9.88959,-0.28906 12.624,-0.14401 7.1131,0.377319 13.18518,1.285178 19.38263,2.897966 6.30276,1.640192 11.22541,3.442831 16.3998,6.005471 2.45522,1.215966 4.58938,2.405327 6.20437,3.457694 7.79394,5.078709 12.17985,12.249704 13.22988,21.630973 0.25255,2.256368 0.22948,6.590688 -0.0473,8.881046 -0.90638,7.501084 -3.30621,15.018864 -7.40044,23.182954 -2.23791,4.46247 -5.15675,9.36708 -7.84769,13.18665 -3.27077,7.1413 6.57479,2.81201 -4.06515,11.21101 -5.46227,4.38661 -11.62253,8.53738 -18,12.12831 -1.1088,0.62433 -2.85227,1.64948 -3.87436,2.27809 -5.94726,3.65773 -9.93257,5.34399 -14.70164,6.22051 -0.6072,0.1116 -1.50558,0.33039 -1.99639,0.4862 -2.69993,0.85707 -6.79338,1.79598 -9.58685,2.19892 -3.08342,0.44477 -6.69471,0.59278 -9.15276,0.37512 z m 28.704,-22.39247 c 6.37148,-0.71708 11.24144,-2.28141 14.90598,-4.78811 3.59569,-2.45962 7.14369,-7.08775 10.2483,-13.36826 3.98408,-8.05968 6.58766,-17.28859 7.54251,-26.736 0.2104,-2.08159 0.29474,-8.128284 0.14043,-10.066539 -0.70994,-8.917477 -3.59885,-15.04411 -8.62746,-18.296624 -0.91527,-0.592002 -1.86032,-1.058593 -3.56976,-1.762489 -7.74109,-3.187529 -15.13236,-5.040264 -23.136,-5.799392 -2.01483,-0.191103 -9.04186,-0.157327 -10.992,0.05283 -4.75481,0.512408 -8.46844,1.298947 -12.528,2.653402 -7.52463,2.510564 -13.96784,6.474851 -19.03757,11.71319 -4.92825,5.092161 -7.96483,10.833024 -8.86167,16.75362 -0.31209,2.060282 -0.22677,5.843002 0.21219,9.408002 1.4796,12.01653 6.62114,21.8391 15.15905,28.96035 7.8624,6.55782 18.3339,10.57001 29.7658,11.40489 1.71173,0.12501 7.24408,0.0438 8.7782,-0.12887 z"
       id="path4501"
       inkscape:connector-curvature="0"
       sodipodi:nodetypes="ccccscccssscssssccscccccccccccccccsccscsscsssc" />
    <path
       style="fill:#e73493;stroke-width:0.096"
       d="m 271.22217,167.51244 c -2.26665,-0.34857 -5.15246,-1.45918 -7.94535,-3.05777 -12.51494,-7.16333 -29.09972,-25.36567 -39.71678,-43.59049 -6.9423,-11.91687 -10.64909,-21.990932 -11.10283,-30.174495 -0.22806,-4.11325 0.37984,-7.281443 2.048,-10.673506 2.89077,-5.878121 8.50024,-10.996346 16.51879,-15.072186 8.69171,-4.418006 19.06608,-7.097563 31.248,-8.070932 2.60544,-0.208181 9.25532,-0.286155 12.24,-0.143521 15.36541,0.734296 29.53275,4.736423 40.896,11.552706 7.76155,4.655791 12.38942,11.153549 13.96387,19.605933 0.66477,3.568787 0.75185,7.992297 0.23815,12.096 -1.72962,13.816811 -9.89477,30.276141 -21.97832,44.304001 -7.96395,9.24539 -16.56627,16.26646 -24.7677,20.21498 -4.62028,2.2244 -9.1432,3.39352 -11.64183,3.00928 z M 282.624,148.3323 c 6.46408,-0.79746 11.43329,-2.54327 15.09315,-5.3026 0.97913,-0.73821 2.94643,-2.70336 3.92999,-3.9257 6.25138,-7.76904 11.21766,-20.61532 12.84107,-33.216 0.44421,-3.44783 0.53215,-4.89781 0.52985,-8.736 -0.002,-3.867232 -0.0919,-5.193348 -0.5236,-7.751586 -0.95647,-5.668061 -3.2441,-10.326629 -6.46497,-13.165435 -1.86088,-1.640127 -3.94506,-2.687601 -8.98744,-4.516905 -13.74752,-4.987417 -27.24458,-5.935369 -39.55405,-2.778038 -3.26934,0.838574 -7.34702,2.36215 -10.35162,3.867759 -11.97504,6.000703 -20.27084,16.363115 -21.32258,26.634381 -0.29017,2.833784 0.044,7.703714 0.81632,11.897374 2.57525,13.98296 10.59038,24.8395 23.1266,31.32515 6.01725,3.11303 13.22212,5.17217 20.11528,5.7489 0.66,0.0552 1.3512,0.11718 1.536,0.13766 0.1848,0.0205 1.9776,0.0236 3.984,0.007 2.94703,-0.0246 3.95237,-0.068 5.232,-0.22583 z"
       id="path4499"
       inkscape:connector-curvature="0"
       sodipodi:nodetypes="ccsscssssscssccssccccssssccccccc" />
    <path
       style="fill:#9c3c93;stroke-width:0.096"
       d="m 271.22217,167.51226 c -2.26665,-0.34857 -5.15246,-1.45918 -7.94535,-3.05777 -12.51494,-7.16333 -29.09972,-25.36567 -39.71678,-43.59049 -6.9423,-11.91686 -10.64909,-21.990931 -11.10283,-30.174493 -0.22806,-4.113251 0.37984,-7.281444 2.048,-10.673507 2.89077,-5.878121 8.50024,-10.996346 16.51879,-15.072186 8.69171,-4.418006 19.06608,-7.097562 31.248,-8.070931 2.60544,-0.208182 9.25532,-0.286156 12.24,-0.143521 15.36541,0.734295 29.53275,4.736423 40.896,11.552705 7.76155,4.655792 12.38942,11.15355 13.96387,19.605933 0.66477,3.568788 0.75185,7.992298 0.23815,12.096 -1.72962,13.81681 -9.89477,30.27614 -21.97832,44.304 -7.96395,9.2454 -16.56627,16.26646 -24.7677,20.21498 -4.62028,2.22441 -9.1432,3.39352 -11.64183,3.00928 z M 282.624,148.3323 c 6.46408,-0.79746 11.43329,-2.54327 15.09315,-5.3026 0.97913,-0.73821 2.94643,-2.70336 3.92999,-3.9257 6.25138,-7.76904 11.21766,-20.61532 12.84107,-33.216 0.44421,-3.44783 0.53215,-4.89781 0.52985,-8.736 -0.002,-3.867232 -0.0919,-5.193348 -0.5236,-7.751586 -0.95647,-5.668061 -3.2441,-10.326629 -6.46497,-13.165435 -1.86088,-1.640127 -3.94506,-2.687601 -8.98744,-4.516905 -13.74752,-4.987417 -27.24458,-5.935369 -39.55405,-2.778038 -3.26934,0.838574 -7.34702,2.36215 -10.35162,3.867759 -11.97504,6.000703 -20.27084,16.363115 -21.32258,26.634381 -0.29017,2.833784 0.044,7.703714 0.81632,11.897374 2.57525,13.98296 10.59038,24.8395 23.1266,31.32515 6.01725,3.11303 13.22212,5.17217 20.11528,5.7489 0.66,0.0552 1.3512,0.11718 1.536,0.13766 0.1848,0.0205 1.9776,0.0236 3.984,0.007 2.94703,-0.0246 3.95237,-0.068 5.232,-0.22583 z"
       id="path4497"
       inkscape:connector-curvature="0"
       sodipodi:nodetypes="ccsscssssscscccssccccssssccccccc" />
    <path
       style="fill:#04a9b2;stroke-width:0.096"
       d="m 270.768,167.38627 c -3.71571,-0.70884 -8.15609,-2.99808 -13.24224,-6.82704 -7.63157,-5.74521 -16.33499,-14.77084 -24.02145,-24.91078 -5.65969,-7.46623 -10.55411,-15.30675 -14.23282,-22.8 -3.60106,-7.33506 -5.83508,-14.060294 -6.58524,-19.824 -0.35016,-2.690383 -0.28991,-5.829655 0.15632,-8.14551 0.4399,-2.282967 1.71746,-5.261071 3.23936,-7.551232 5.28267,-7.949375 16.13652,-14.394902 30.06284,-17.852747 11.43809,-2.840027 24.14416,-3.544595 36.33523,-2.014836 10.37004,1.301253 20.16812,4.210019 28.608,8.492882 5.03341,2.554235 7.71138,4.385624 10.51801,7.19299 1.74502,1.745478 2.90774,3.180194 3.97306,4.902453 5.25282,8.492133 5.73014,19.930445 1.38209,33.12 -3.64588,11.05958 -10.529,22.82912 -19.34008,33.06981 -7.81581,9.08396 -16.20784,15.98734 -24.27708,19.97062 -3.0213,1.49143 -5.30564,2.33721 -8.064,2.9857 -1.29501,0.30446 -3.4426,0.3957 -4.512,0.19169 z M 279.6,148.6049 c 7.40441,-0.44122 13.4128,-2.20634 17.63548,-5.1809 1.06657,-0.75132 3.13696,-2.73538 4.22736,-4.05108 5.94169,-7.16941 10.92546,-19.47541 12.78338,-31.56492 0.5817,-3.78512 0.75327,-5.86349 0.79997,-9.690691 0.0264,-2.168901 0.002,-4.140292 -0.0621,-4.970242 -0.71864,-9.329581 -4.01821,-15.758983 -9.70416,-18.909139 -1.18572,-0.656921 -4.73036,-2.076614 -7.77592,-3.114405 -5.67723,-1.934541 -10.91206,-3.096846 -16.85925,-3.7433 -2.30467,-0.250515 -8.15172,-0.355855 -10.51104,-0.189365 -10.66858,0.752846 -20.23903,4.127545 -28.02171,9.880913 -6.81439,5.037558 -11.7447,11.715698 -13.58443,18.400229 -0.96448,3.504336 -1.09732,6.47639 -0.52351,11.712 1.22662,11.192 5.35583,20.21829 12.51747,27.36277 5.63639,5.62288 12.71941,9.65237 21.16007,12.03783 5.6869,1.60721 12.31305,2.3543 17.9184,2.0203 z"
       id="path4495"
       inkscape:connector-curvature="0"
       sodipodi:nodetypes="csscscssssscscscccccscccsssscssscc" />
    <path
       style="fill:#295ba5;stroke-width:0.096"
       d="m 270.768,167.38582 c -3.71571,-0.70884 -8.15609,-2.99808 -13.24224,-6.82704 -7.63157,-5.74521 -16.33499,-14.77084 -24.02145,-24.91078 -5.65969,-7.46623 -10.55411,-15.30675 -14.23282,-22.8 -3.60106,-7.33506 -5.83508,-14.060294 -6.58524,-19.824 -0.35016,-2.690383 -0.28991,-5.829655 0.15632,-8.14551 0.4399,-2.282967 1.71746,-5.261071 3.23936,-7.551232 5.28267,-7.949375 16.13652,-14.394902 30.06284,-17.852747 11.43809,-2.840027 24.14416,-3.544595 36.33523,-2.014836 10.37004,1.301253 20.16812,4.210019 28.608,8.492882 5.03341,2.554235 7.71138,4.385624 10.51801,7.19299 1.74502,1.745478 2.90774,3.180194 3.97306,4.902453 5.25282,8.492133 5.73014,19.930445 1.38209,33.12 -3.64588,11.05958 -10.529,22.82912 -19.34008,33.06981 -7.81581,9.08396 -16.20784,15.98734 -24.27708,19.97062 -3.0213,1.49143 -5.30564,2.33721 -8.064,2.9857 -1.29501,0.30446 -3.4426,0.3957 -4.512,0.19169 z M 279.6,148.6049 c 7.40441,-0.44122 13.4128,-2.20634 17.63548,-5.1809 1.06657,-0.75132 3.13696,-2.73538 4.22736,-4.05108 5.94169,-7.16941 10.92546,-19.47541 12.78338,-31.56492 0.5817,-3.78512 0.75327,-5.86349 0.79997,-9.690691 0.0264,-2.168901 0.002,-4.140292 -0.0621,-4.970242 -0.71864,-9.329581 -4.01821,-15.758983 -9.70416,-18.909139 -1.18572,-0.656921 -4.73036,-2.076614 -7.77592,-3.114405 -5.67723,-1.934541 -10.91206,-3.096846 -16.85925,-3.7433 -2.30467,-0.250515 -8.15172,-0.355855 -10.51104,-0.189365 -10.66858,0.752846 -20.23903,4.127545 -28.02171,9.880913 -6.81439,5.037558 -11.7447,11.715698 -13.58443,18.400229 -0.96448,3.504336 -1.09732,6.47639 -0.52351,11.712 1.22662,11.192 5.35583,20.21829 12.51747,27.36277 5.63639,5.62288 12.71941,9.65237 21.16007,12.03783 5.6869,1.60721 12.31305,2.3543 17.9184,2.0203 z"
       id="path4493"
       inkscape:connector-curvature="0"
       sodipodi:nodetypes="csscscssssscscscccccscccsssscssscc" />
    <path
       style="fill:#4e4e4e;stroke-width:0.096"
       d="m 270.768,167.38582 c -3.71571,-0.70884 -8.15609,-2.99808 -13.24224,-6.82704 -7.63157,-5.74521 -16.33499,-14.77084 -24.02145,-24.91078 -5.65969,-7.46623 -10.55411,-15.30675 -14.23282,-22.8 -3.60106,-7.33506 -5.83508,-14.060294 -6.58524,-19.824 -0.35016,-2.690383 -0.28991,-5.829655 0.15632,-8.14551 0.4399,-2.282967 1.71746,-5.261071 3.23936,-7.551232 5.28267,-7.949375 16.13652,-14.394902 30.06284,-17.852747 11.43809,-2.840027 24.14416,-3.544595 36.33523,-2.014836 10.37004,1.301253 20.16812,4.210019 28.608,8.492882 5.03341,2.554235 7.71138,4.385624 10.51801,7.19299 1.74502,1.745478 2.90774,3.180194 3.97306,4.902453 5.25282,8.492133 5.73014,19.930445 1.38209,33.12 -3.64588,11.05958 -10.529,22.82912 -19.34008,33.06981 -7.81581,9.08396 -16.20784,15.98734 -24.27708,19.97062 -3.0213,1.49143 -5.30564,2.33721 -8.064,2.9857 -1.29501,0.30446 -3.4426,0.3957 -4.512,0.19169 z M 279.6,148.6049 c 7.40441,-0.44122 13.4128,-2.20634 17.63548,-5.1809 1.06657,-0.75132 3.13696,-2.73538 4.22736,-4.05108 5.94169,-7.16941 10.92546,-19.47541 12.78338,-31.56492 0.5817,-3.78512 0.75327,-5.86349 0.79997,-9.690691 0.0264,-2.168901 0.002,-4.140292 -0.0621,-4.970242 -0.71864,-9.329581 -4.01821,-15.758983 -9.70416,-18.909139 -1.18572,-0.656921 -4.73036,-2.076614 -7.77592,-3.114405 -5.67723,-1.934541 -10.91206,-3.096846 -16.85925,-3.7433 -2.30467,-0.250515 -8.15172,-0.355855 -10.51104,-0.189365 -10.66858,0.752846 -20.23903,4.127545 -28.02171,9.880913 -6.81439,5.037558 -11.7447,11.715698 -13.58443,18.400229 -0.96448,3.504336 -1.09732,6.47639 -0.52351,11.712 1.22662,11.192 5.35583,20.21829 12.51747,27.36277 5.63639,5.62288 12.71941,9.65237 21.16007,12.03783 5.6869,1.60721 12.31305,2.3543 17.9184,2.0203 z"
       id="path4491"
       inkscape:connector-curvature="0"
       sodipodi:nodetypes="csscscssssscscscccccscccsssscssscc" />
    <path
       style="fill:#323233;stroke-width:0.096"
       d="m 271.776,167.36263 c -0.132,-0.0194 -0.564,-0.0828 -0.96,-0.14087 -0.86829,-0.12739 -2.62516,-0.64816 -3.74325,-1.10956 -9.39237,-3.87599 -22.4503,-15.88957 -33.99943,-31.2802 -8.23818,-10.97839 -14.77245,-22.73273 -17.98006,-32.34388 -1.69738,-5.085992 -2.46236,-9.180198 -2.46786,-13.20812 -0.003,-1.95915 0.0877,-2.969208 0.40689,-4.546229 0.58452,-2.888023 2.25013,-6.249673 4.50176,-9.085771 1.42389,-1.79348 3.99465,-4.296461 4.2946,-4.181361 0.0995,0.03817 0.12773,0.01124 0.0904,-0.08613 -0.0653,-0.170268 0.56848,-0.724512 0.82853,-0.724512 0.0967,0 0.15143,-0.03941 0.12167,-0.08757 -0.0298,-0.04816 0.11427,-0.220941 0.32009,-0.383948 0.28458,-0.2254 0.38657,-0.264151 0.42583,-0.161814 0.0682,0.177682 -0.0143,0.249333 -0.28713,0.249333 -0.16388,0 -0.224,0.05436 -0.224,0.202503 0,0.176716 0.0449,0.197261 0.35257,0.161342 0.35236,-0.04113 0.35611,-0.03763 6.10558,5.7095 5.07737,5.075301 5.78007,5.743869 5.98343,5.692829 0.39959,-0.100292 0.27287,0.207473 -0.45742,1.110909 C 234.70985,83.617087 234.38277,84 234.36131,84 c -0.0215,0 -0.10383,-0.0648 -0.18303,-0.144 -0.0792,-0.0792 -0.27051,-0.144 -0.42513,-0.144 -0.25904,0 -0.28115,0.0273 -0.28115,0.347192 0,0.31522 0.0213,0.343113 0.23162,0.302914 0.34624,-0.06619 0.2567,0.171665 -0.39241,1.042329 -0.30757,0.412545 -0.64561,0.889833 -0.75121,1.060642 -2.30894,3.734738 -3.12895,5.422589 -3.97935,8.190923 -0.82248,2.677411 -1.01265,4.0656 -1.01265,7.392 0,2.74634 0.0386,3.2109 0.59102,7.104 1.08323,7.63457 3.72958,14.4644 7.84352,20.24291 2.62578,3.6882 6.34507,7.3545 10.18946,10.04426 7.45806,5.21812 16.41344,8.32098 26.496,9.18033 1.73758,0.14809 6.5304,0.14741 8.256,-10e-4 6.95074,-0.59854 12.70461,-2.43749 16.55179,-5.29 3.8259,-2.83673 7.67583,-8.20844 10.75702,-15.009 3.18775,-7.03573 5.29069,-14.46757 6.38798,-22.57532 0.13577,-1.0032 0.26695,-1.8672 0.29151,-1.92 0.14821,-0.31857 -0.17944,4.01802 -0.48958,6.48 -1.20996,9.60498 -4.13553,19.04998 -8.30516,26.81265 -0.83909,1.56215 -2.50812,4.30583 -2.87329,4.72335 -0.0924,0.1056 -0.35638,0.4728 -0.58671,0.816 -0.23033,0.3432 -0.77581,1.06593 -1.21217,1.60608 -1.15966,1.61076 -1.86705,2.89641 -0.67477,4.08031 1.49837,1.47869 1.53145,1.28635 -0.57484,3.34219 -7.19752,7.02509 -15.28728,12.35354 -22.12893,14.57557 -2.84113,0.92274 -4.9845,1.29717 -6.31091,1.10248 z M 233.4538,83.352 c -0.0281,-0.339347 -0.0501,-0.361691 -0.38433,-0.389469 -0.33311,-0.02769 -0.35631,-0.0509 -0.384,-0.384 -0.0277,-0.333104 -0.0509,-0.356312 -0.384,-0.384 -0.33311,-0.02769 -0.35631,-0.0509 -0.384,-0.384 -0.0277,-0.333104 -0.0509,-0.356312 -0.384,-0.384 -0.33311,-0.02769 -0.35631,-0.0509 -0.384,-0.384 -0.0277,-0.333104 -0.0509,-0.356312 -0.384,-0.384 -0.33311,-0.02769 -0.35631,-0.0509 -0.384,-0.384 -0.0277,-0.333104 -0.0509,-0.356312 -0.384,-0.384 -0.33311,-0.02769 -0.35631,-0.0509 -0.384,-0.384 -0.0277,-0.333104 -0.0509,-0.356312 -0.384,-0.384 -0.33311,-0.02769 -0.35631,-0.0509 -0.384,-0.384 -0.0277,-0.333104 -0.0509,-0.356312 -0.384,-0.384 -0.33311,-0.02769 -0.35631,-0.0509 -0.384,-0.384 -0.0277,-0.333104 -0.0509,-0.356312 -0.384,-0.384 -0.33311,-0.02769 -0.35631,-0.0509 -0.384,-0.384 -0.0277,-0.333104 -0.0509,-0.356312 -0.384,-0.384 -0.33311,-0.02769 -0.35631,-0.0509 -0.384,-0.384 -0.0277,-0.333104 -0.0509,-0.356312 -0.384,-0.384 -0.33311,-0.02769 -0.35631,-0.0509 -0.384,-0.384 -0.0277,-0.333104 -0.0509,-0.356312 -0.384,-0.384 -0.33311,-0.02769 -0.35631,-0.0509 -0.384,-0.384 -0.0277,-0.333104 -0.0509,-0.356312 -0.384,-0.384 -0.33311,-0.02769 -0.35631,-0.0509 -0.384,-0.384 -0.0277,-0.333104 -0.0509,-0.356312 -0.384,-0.384 -0.33311,-0.02769 -0.35631,-0.0509 -0.384,-0.384 -0.0277,-0.333104 -0.0509,-0.356312 -0.384,-0.384 -0.33311,-0.02769 -0.35631,-0.0509 -0.384,-0.384 -0.0236,-0.283694 -0.0727,-0.360664 -0.24563,-0.385229 -0.27755,-0.03942 -0.52595,0.208992 -0.48654,0.486539 0.0246,0.17297 0.10154,0.222047 0.38523,0.245628 0.33311,0.02769 0.35631,0.0509 0.384,0.384 0.0277,0.333104 0.0509,0.356312 0.384,0.384 0.33311,0.02769 0.35631,0.0509 0.384,0.384 0.0277,0.333104 0.0509,0.356312 0.384,0.384 0.33311,0.02769 0.35631,0.0509 0.384,0.384 0.0277,0.333104 0.0509,0.356312 0.384,0.384 0.33311,0.02769 0.35631,0.0509 0.384,0.384 0.0277,0.333104 0.0509,0.356312 0.384,0.384 0.33311,0.02769 0.35631,0.0509 0.384,0.384 0.0277,0.333104 0.0509,0.356312 0.384,0.384 0.33311,0.02769 0.35631,0.0509 0.384,0.384 0.0277,0.333104 0.0509,0.356312 0.384,0.384 0.33311,0.02769 0.35631,0.0509 0.384,0.384 0.0277,0.333104 0.0509,0.356312 0.384,0.384 0.33311,0.02769 0.35631,0.0509 0.384,0.384 0.0277,0.333104 0.0509,0.356312 0.384,0.384 0.33311,0.02769 0.35631,0.0509 0.384,0.384 0.0277,0.333104 0.0509,0.356312 0.384,0.384 0.33311,0.02769 0.35631,0.0509 0.384,0.384 0.0277,0.333104 0.0509,0.356312 0.384,0.384 0.33311,0.02769 0.35631,0.0509 0.384,0.384 0.0277,0.333104 0.0509,0.356312 0.384,0.384 0.33311,0.02769 0.35631,0.0509 0.384,0.384 0.0277,0.333104 0.0509,0.356312 0.384,0.384 0.33311,0.02769 0.35631,0.0509 0.384,0.384 0.0278,0.334191 0.0501,0.356241 0.38947,0.384327 0.3366,0.02786 0.36,0.05021 0.36,0.343999 0,0.393603 0.0499,0.442205 0.45379,0.442205 0.31777,0 0.32507,-0.0089 0.29601,-0.36 z m 2.6102,-1.602334 c 0,-0.08232 0.0432,-0.149666 0.096,-0.149666 0.0528,0 0.096,0.04065 0.096,0.09033 0,0.04968 -0.0432,0.117034 -0.096,0.149666 -0.0528,0.03263 -0.096,-0.008 -0.096,-0.09033 z m 0.288,-0.527416 c 0,-0.264743 0.19731,-0.574188 0.33293,-0.522145 0.18881,0.07245 0.1909,0.227895 0.003,0.227895 -0.08,0 -0.144,0.08533 -0.144,0.192 0,0.1056 -0.0432,0.192 -0.096,0.192 -0.0528,0 -0.096,-0.04039 -0.096,-0.08975 z"
       id="path4489"
       inkscape:connector-curvature="0"
       sodipodi:nodetypes="cccsccccccscccsscsccssssccscscccccscccsscscccsccccccccccccccccccccccccccccccccccccccccccccccccccccccccccccsscssscsccssscc" />
  </g>
</svg>
